<svg xmlns="http://www.w3.org/2000/svg" xmlns:xlink="http://www.w3.org/1999/xlink" width="500" zoomAndPan="magnify" viewBox="0 0 375 374.999991" height="500" preserveAspectRatio="xMidYMid meet" version="1.0"><defs><clipPath id="a0e3edc229"><path d="M 45 99 L 331 99 L 331 357.300781 L 45 357.300781 Z M 45 99 " clip-rule="nonzero"/></clipPath><clipPath id="6a71a8046a"><path d="M 41.597656 222.238281 L 165.320312 222.238281 L 165.320312 358.5 L 41.597656 358.5 Z M 41.597656 222.238281 " clip-rule="nonzero"/></clipPath><clipPath id="a228802687"><path d="M 41.597656 218.730469 L 165.320312 218.730469 L 165.320312 355 L 41.597656 355 Z M 41.597656 218.730469 " clip-rule="nonzero"/></clipPath></defs><path fill="#546e5a" d="M 359.261719 136.488281 L 301.542969 94.03125 L 301.542969 43.386719 C 301.542969 35.445312 295.097656 29.023438 287.171875 29.023438 L 263.808594 29.023438 C 255.871094 29.023438 249.4375 35.457031 249.4375 43.386719 L 249.4375 55.691406 L 205.425781 23.324219 C 195.878906 16.28125 180.246094 16.28125 170.695312 23.324219 L 16.863281 136.488281 C 7.3125 143.519531 5.253906 157.09375 12.285156 166.652344 L 16.535156 172.421875 C 23.554688 181.984375 37.128906 184.050781 46.667969 177.023438 L 170.695312 85.742188 C 180.246094 78.714844 195.878906 78.714844 205.425781 85.742188 L 329.445312 177.023438 C 338.996094 184.050781 352.558594 181.972656 359.578125 172.421875 L 363.839844 166.652344 C 370.859375 157.09375 368.800781 143.519531 359.261719 136.488281 Z M 359.261719 136.488281 " fill-opacity="1" fill-rule="nonzero"/><g clip-path="url(#a0e3edc229)"><path fill="#546e5a" d="M 313.242188 184.964844 L 205.394531 105.257812 C 195.855469 98.203125 180.269531 98.203125 170.730469 105.257812 L 62.882812 184.964844 C 53.347656 192.015625 45.542969 202.328125 45.542969 207.917969 L 45.542969 323.480469 C 45.542969 342.238281 61.625 357.457031 81.476562 357.457031 L 147.335938 357.457031 L 147.335938 255.234375 C 147.335938 247.339844 153.804688 240.882812 161.699219 240.882812 L 214.402344 240.882812 C 222.296875 240.882812 228.765625 247.339844 228.765625 255.234375 L 228.765625 357.457031 L 294.636719 357.457031 C 314.476562 357.457031 330.550781 342.238281 330.550781 323.480469 L 330.550781 207.917969 C 330.5625 202.328125 322.777344 192.015625 313.242188 184.964844 Z M 313.242188 184.964844 " fill-opacity="1" fill-rule="nonzero"/></g><g clip-path="url(#6a71a8046a)"><path fill="#9a3c20" d="M 105.871094 225.804688 C 94.445312 221.164062 80.375 225.40625 73.363281 235.378906 C 66.949219 244.5 67.265625 257.617188 73.910156 267.339844 C 68.933594 267.863281 63.957031 268.042969 60.960938 268.296875 C 46.023438 269.566406 40.292969 278.667969 41.847656 286.742188 C 42.464844 289.945312 44.054688 292.597656 46.445312 294.414062 C 48.910156 296.285156 52.121094 297.238281 55.996094 297.238281 C 58.828125 297.238281 62.054688 296.722656 65.59375 295.707031 C 66.367188 295.484375 67.105469 295.269531 67.800781 295.066406 C 71.019531 294.136719 73.636719 293.378906 75.117188 293.214844 C 75.269531 294.871094 74.851562 299.203125 73.03125 306.03125 C 71.191406 312.917969 68.609375 319.777344 66.117188 324.378906 C 63.996094 328.296875 62.488281 331.789062 61.5 335.046875 C 59.84375 340.519531 59.753906 345.203125 61.226562 348.96875 C 62.285156 351.667969 64.738281 355.292969 70.417969 357.21875 C 72.929688 358.066406 75.3125 358.5 77.5 358.5 C 82.652344 358.5 86.980469 356.105469 90.015625 351.574219 C 92.339844 348.113281 93.621094 343.964844 94.664062 340 C 96.015625 334.871094 98.121094 331.726562 100.324219 331.542969 C 102.523438 331.726562 104.632812 334.871094 105.980469 340 C 107.023438 343.964844 108.308594 348.113281 110.632812 351.574219 C 114.796875 357.789062 121.421875 360.203125 130.226562 357.21875 C 140.15625 353.851562 142.175781 345.054688 139.148438 335.046875 C 136.261719 325.515625 132.097656 322.8125 127.617188 306.03125 C 125.589844 298.445312 125.300781 293.941406 125.597656 292.761719 L 125.636719 292.609375 L 125.664062 292.457031 C 127.1875 283.40625 138.394531 278.929688 146.3125 272.582031 C 149.835938 276.726562 152.828125 281.152344 157.925781 281.152344 C 157.859375 281.171875 162.425781 281.324219 164.515625 277.519531 C 165.265625 276.152344 166.164062 273.292969 163.753906 269.496094 C 163.582031 269.226562 163.414062 268.96875 163.125 268.589844 C 162.957031 268.367188 162.78125 268.140625 162.597656 267.921875 L 162.472656 267.769531 C 162.027344 267.222656 161.351562 266.410156 160.234375 265.070312 C 159.71875 264.449219 156.785156 260.925781 156.050781 260.042969 C 158.75 251.921875 153.6875 245.589844 148.601562 243.53125 C 152.628906 242.957031 155.257812 238.925781 154.480469 234.625 L 154.476562 234.605469 C 154.441406 234.425781 154.402344 234.238281 154.359375 234.058594 C 154.277344 233.742188 154.289062 233.765625 154.203125 233.488281 C 154.128906 233.238281 154.050781 233.015625 153.96875 232.800781 C 153.898438 232.609375 153.828125 232.441406 153.773438 232.3125 C 153.65625 232.039062 153.574219 231.875 153.460938 231.644531 C 150.277344 225.335938 142.363281 221.042969 134.835938 222.558594 C 133.8125 222.761719 132.792969 223.085938 131.765625 223.535156 C 131.703125 223.574219 128.300781 224.910156 125.65625 228.289062 C 125.640625 228.3125 125.464844 228.539062 125.339844 228.710938 C 125.222656 228.867188 125.140625 228.984375 125.042969 229.132812 C 120.125 236.3125 122.675781 243.515625 127.980469 250.410156 C 126.949219 251.34375 124.472656 253.480469 121.84375 255.792969 C 123.433594 243.105469 118.003906 230.734375 105.871094 225.804688 " fill-opacity="1" fill-rule="nonzero"/></g><path fill="#df8839" d="M 59.898438 238.378906 C 58.207031 242.191406 60.242188 246.214844 65.394531 246.214844 C 65.378906 246.21875 72.402344 246.695312 89.269531 236.945312 C 95.234375 233.496094 100.597656 229.746094 104.363281 226.386719 C 107.84375 223.28125 111.945312 218.875 109.613281 214.835938 C 107.085938 210.445312 100.34375 212.378906 95.5625 214.109375 C 94.65625 211.070312 93.519531 207.570312 92.230469 204.257812 C 89.480469 197.164062 87 193.28125 84.195312 191.660156 C 76.988281 187.496094 61.582031 197.402344 55.703125 203.328125 C 52.199219 206.859375 50.429688 210.203125 50.453125 213.261719 C 50.472656 216.539062 53 220.253906 58.648438 225.308594 C 61.015625 227.429688 63.625 229.503906 66 231.296875 C 63.847656 233.140625 61.042969 235.796875 59.898438 238.378906 " fill-opacity="1" fill-rule="nonzero"/><g clip-path="url(#a228802687)"><path fill="#df8839" d="M 105.871094 222.296875 C 102.804688 221.050781 99.503906 220.421875 96.058594 220.421875 C 87.027344 220.421875 78.332031 224.804688 73.363281 231.867188 C 66.949219 240.992188 67.265625 254.105469 73.910156 263.832031 C 70.734375 264.164062 67.535156 264.359375 64.898438 264.523438 C 63.367188 264.617188 62.046875 264.695312 60.960938 264.789062 C 51.453125 265.59375 46.699219 269.410156 44.386719 272.46875 C 42.015625 275.601562 41.117188 279.425781 41.847656 283.234375 C 42.464844 286.4375 44.054688 289.089844 46.445312 290.90625 C 48.910156 292.777344 52.121094 293.726562 55.996094 293.726562 C 58.828125 293.726562 62.054688 293.210938 65.59375 292.199219 C 66.367188 291.976562 67.105469 291.761719 67.800781 291.558594 C 71.019531 290.628906 73.636719 289.867188 75.117188 289.707031 C 75.269531 291.363281 74.851562 295.695312 73.03125 302.519531 C 71.191406 309.40625 68.609375 316.265625 66.117188 320.867188 C 63.996094 324.789062 62.488281 328.277344 61.5 331.539062 C 59.84375 337.011719 59.753906 341.695312 61.226562 345.460938 C 62.285156 348.160156 64.738281 351.78125 70.417969 353.707031 C 72.929688 354.558594 75.3125 354.988281 77.5 354.988281 C 82.652344 354.988281 86.980469 352.597656 90.015625 348.066406 C 92.339844 344.601562 93.621094 340.457031 94.664062 336.488281 C 96.015625 331.359375 98.121094 328.21875 100.324219 328.03125 C 102.523438 328.21875 104.632812 331.359375 105.980469 336.488281 C 107.023438 340.457031 108.308594 344.601562 110.632812 348.066406 C 113.667969 352.597656 117.996094 354.988281 123.144531 354.988281 C 125.335938 354.988281 127.71875 354.558594 130.226562 353.707031 C 135.90625 351.78125 138.359375 348.160156 139.417969 345.460938 C 140.894531 341.695312 140.804688 337.011719 139.148438 331.539062 C 138.160156 328.277344 136.648438 324.789062 134.527344 320.867188 C 132.039062 316.265625 129.453125 309.40625 127.617188 302.519531 C 125.589844 294.9375 125.300781 290.429688 125.597656 289.253906 L 125.636719 289.101562 L 125.664062 288.945312 C 126.777344 282.34375 132.984375 278.21875 139.558594 273.847656 C 141.851562 272.324219 144.214844 270.753906 146.3125 269.070312 C 146.351562 269.117188 146.785156 269.625 146.785156 269.625 C 147.785156 270.804688 148.660156 271.832031 149.082031 272.324219 L 149.324219 272.609375 C 150.472656 273.953125 152.394531 276.203125 155.234375 277.195312 C 156.089844 277.492188 156.996094 277.644531 157.925781 277.644531 C 157.929688 277.644531 157.929688 277.644531 157.929688 277.644531 C 160.761719 277.644531 163.285156 276.25 164.515625 274.007812 C 165.265625 272.640625 166.164062 269.785156 163.753906 265.988281 C 163.582031 265.714844 163.414062 265.460938 163.125 265.082031 C 162.957031 264.855469 162.78125 264.632812 162.597656 264.410156 L 162.472656 264.261719 C 162.027344 263.710938 161.351562 262.902344 160.234375 261.5625 C 159.71875 260.941406 156.785156 257.417969 156.050781 256.535156 C 157.621094 251.8125 156.765625 247.296875 153.554688 243.617188 C 152.121094 241.976562 150.449219 240.769531 148.601562 240.019531 C 149.222656 239.929688 149.820312 239.761719 150.394531 239.507812 C 153.003906 238.347656 154.699219 235.5 154.617188 232.421875 C 154.613281 232.296875 154.605469 232.167969 154.597656 232.03125 C 154.59375 231.984375 154.589844 231.941406 154.585938 231.890625 C 154.578125 231.8125 154.570312 231.734375 154.558594 231.65625 L 154.558594 231.640625 C 154.554688 231.597656 154.546875 231.554688 154.539062 231.503906 L 154.535156 231.46875 C 154.527344 231.402344 154.515625 231.335938 154.507812 231.277344 C 154.5 231.226562 154.488281 231.175781 154.480469 231.113281 L 154.476562 231.097656 C 154.464844 231.03125 154.453125 230.96875 154.441406 230.914062 C 154.429688 230.855469 154.417969 230.796875 154.402344 230.738281 L 154.398438 230.710938 C 154.386719 230.65625 154.371094 230.601562 154.359375 230.546875 L 154.3125 230.355469 C 154.296875 230.296875 154.28125 230.238281 154.261719 230.171875 C 154.246094 230.109375 154.226562 230.050781 154.210938 229.996094 L 154.203125 229.976562 C 154.1875 229.925781 154.171875 229.875 154.15625 229.820312 C 154.136719 229.761719 154.117188 229.703125 154.097656 229.644531 C 154.078125 229.589844 154.058594 229.535156 154.035156 229.472656 C 154.015625 229.414062 153.996094 229.359375 153.96875 229.292969 L 153.964844 229.277344 C 153.945312 229.230469 153.929688 229.183594 153.910156 229.140625 C 153.886719 229.078125 153.859375 229.015625 153.832031 228.945312 C 153.832031 228.945312 153.789062 228.835938 153.773438 228.804688 C 153.746094 228.738281 153.714844 228.671875 153.6875 228.609375 C 153.664062 228.558594 153.640625 228.507812 153.621094 228.46875 C 153.59375 228.40625 153.5625 228.34375 153.53125 228.273438 L 153.460938 228.132812 C 153.429688 228.070312 153.398438 228.007812 153.363281 227.941406 L 153.300781 227.824219 C 153.261719 227.757812 153.226562 227.691406 153.191406 227.621094 L 153.121094 227.5 C 153.082031 227.433594 153.042969 227.367188 153.007812 227.304688 L 152.9375 227.191406 C 152.894531 227.121094 152.855469 227.054688 152.816406 226.996094 L 152.746094 226.882812 C 152.699219 226.8125 152.652344 226.742188 152.605469 226.667969 L 152.550781 226.585938 C 152.5 226.511719 152.449219 226.4375 152.398438 226.363281 L 152.347656 226.292969 C 152.292969 226.214844 152.238281 226.136719 152.183594 226.066406 L 152.140625 226.007812 C 152.078125 225.925781 152.019531 225.84375 151.949219 225.757812 L 151.929688 225.726562 C 151.863281 225.644531 151.792969 225.558594 151.722656 225.472656 L 151.703125 225.445312 C 148.683594 221.738281 144.117188 219.257812 139.480469 218.8125 C 139.300781 218.796875 139.117188 218.785156 138.941406 218.773438 L 138.867188 218.769531 C 138.703125 218.757812 138.535156 218.75 138.371094 218.746094 L 138.316406 218.746094 C 138.191406 218.742188 138.0625 218.742188 137.9375 218.742188 C 136.894531 218.742188 135.847656 218.84375 134.835938 219.046875 C 133.910156 219.234375 132.984375 219.515625 132.082031 219.890625 C 131.976562 219.933594 131.871094 219.980469 131.765625 220.023438 L 131.660156 220.070312 C 129.332031 221.109375 127.253906 222.742188 125.65625 224.78125 C 125.632812 224.8125 125.574219 224.890625 125.574219 224.890625 C 125.492188 224.996094 125.414062 225.101562 125.339844 225.199219 C 125.28125 225.285156 125.21875 225.367188 125.160156 225.449219 C 125.160156 225.449219 125.074219 225.574219 125.042969 225.621094 C 124.96875 225.730469 124.890625 225.839844 124.820312 225.953125 C 123.214844 228.429688 122.386719 231.210938 122.433594 234 C 122.460938 235.621094 122.765625 237.277344 123.339844 238.925781 C 123.402344 239.113281 123.472656 239.304688 123.550781 239.507812 L 123.578125 239.578125 C 123.648438 239.757812 123.722656 239.9375 123.796875 240.113281 L 123.820312 240.171875 C 123.972656 240.527344 124.144531 240.894531 124.320312 241.253906 L 124.335938 241.28125 L 124.363281 241.335938 C 124.449219 241.507812 124.535156 241.675781 124.625 241.84375 L 124.652344 241.898438 C 124.746094 242.070312 124.839844 242.242188 124.9375 242.414062 L 124.972656 242.472656 C 125.160156 242.804688 125.359375 243.140625 125.570312 243.476562 L 125.585938 243.507812 C 125.683594 243.660156 125.785156 243.816406 125.882812 243.972656 L 125.917969 244.023438 C 126.222656 244.488281 126.554688 244.972656 126.90625 245.464844 L 126.9375 245.507812 C 127.039062 245.648438 127.140625 245.785156 127.238281 245.921875 L 127.28125 245.976562 C 127.5 246.273438 127.730469 246.578125 127.980469 246.902344 C 127.722656 247.136719 127.464844 247.371094 127.210938 247.613281 C 125.371094 249.339844 123.835938 250.734375 122.527344 251.886719 C 122.535156 251.816406 122.546875 251.746094 122.554688 251.675781 C 124.082031 238.5625 117.53125 227.03125 105.871094 222.296875 " fill-opacity="1" fill-rule="nonzero"/></g><path fill="#9a3c20" d="M 63.269531 243.148438 C 64.6875 245.609375 75.476562 242.039062 87.363281 235.167969 C 99.25 228.296875 107.734375 220.730469 106.316406 218.265625 C 105.351562 216.59375 100.070312 217.703125 93.058594 220.738281 C 91.300781 214.308594 86.730469 199.054688 82.292969 196.492188 C 76.644531 193.226562 54.210938 206.933594 54.261719 214.761719 C 54.292969 219.421875 66.695312 228.734375 72.292969 232.699219 C 66.003906 237.339844 62.289062 241.453125 63.269531 243.148438 " fill-opacity="1" fill-rule="nonzero"/><path fill="#9a3c20" d="M 116.90625 261.949219 C 116.90625 261.949219 108.777344 265.429688 99.199219 266.976562 C 89.765625 268.5 79.6875 267.78125 79.6875 267.78125 C 79.6875 267.78125 80.128906 276.082031 91.851562 277.1875 C 90.359375 282.515625 87.246094 288.835938 83.535156 292.507812 C 82.773438 293.261719 82.84375 294.515625 83.683594 295.183594 C 86.050781 297.066406 89.035156 298.484375 91.976562 298.832031 C 92.683594 298.914062 93.375 298.578125 93.730469 297.960938 C 95.042969 295.699219 96.175781 292.871094 97.007812 289.804688 C 97.226562 291.605469 97.558594 293.390625 98.007812 295.144531 C 98.207031 295.914062 98.988281 296.375 99.75 296.167969 C 102.34375 295.460938 104.746094 294.570312 106.894531 293.132812 C 107.476562 292.746094 107.675781 291.984375 107.375 291.355469 C 105.105469 286.609375 102.898438 281.714844 101.980469 276.601562 C 120.792969 273.265625 116.90625 261.949219 116.90625 261.949219 " fill-opacity="1" fill-rule="nonzero"/><path fill="#9a3c20" d="M 120.71875 305.972656 C 120.691406 305.980469 120.667969 305.992188 120.644531 306.003906 C 120.574219 306.035156 120.65625 306 120.71875 305.972656 " fill-opacity="1" fill-rule="nonzero"/><path fill="#9a3c20" d="M 111.902344 307.984375 C 111.929688 307.980469 111.921875 307.980469 111.902344 307.984375 " fill-opacity="1" fill-rule="nonzero"/><path fill="#9a3c20" d="M 78.628906 306.277344 C 78.453125 306.609375 78.511719 307.144531 78.902344 307.320312 C 79.210938 307.460938 79.53125 307.582031 79.851562 307.695312 C 80.632812 307.972656 81.429688 308.207031 82.230469 308.414062 C 83.550781 308.761719 84.890625 309.039062 86.238281 309.269531 C 88.164062 309.597656 90.105469 309.835938 92.054688 310 C 94.519531 310.207031 96.996094 310.292969 99.46875 310.289062 C 102.066406 310.28125 104.664062 310.183594 107.253906 309.988281 C 109.296875 309.832031 111.332031 309.609375 113.355469 309.300781 C 114.769531 309.085938 116.175781 308.828125 117.566406 308.5 C 118.433594 308.296875 119.296875 308.066406 120.144531 307.792969 C 120.5 307.675781 120.851562 307.558594 121.191406 307.414062 C 121.265625 307.382812 121.339844 307.351562 121.414062 307.320312 C 121.777344 307.15625 121.890625 306.597656 121.6875 306.277344 C 121.457031 305.921875 121.085938 305.839844 120.71875 305.972656 C 120.65625 306 120.574219 306.035156 120.644531 306.003906 C 120.667969 305.992188 120.691406 305.980469 120.71875 305.972656 C 120.753906 305.957031 120.789062 305.941406 120.777344 305.945312 C 120.734375 305.960938 120.691406 305.980469 120.648438 306 C 120.472656 306.070312 120.292969 306.132812 120.113281 306.195312 C 119.394531 306.445312 118.660156 306.652344 117.925781 306.84375 C 116.683594 307.160156 115.425781 307.417969 114.164062 307.632812 C 113.761719 307.703125 113.355469 307.769531 112.953125 307.832031 C 112.734375 307.863281 112.519531 307.894531 112.304688 307.925781 C 112.203125 307.941406 112.097656 307.953125 111.996094 307.96875 C 111.945312 307.976562 111.890625 307.984375 111.839844 307.988281 C 111.871094 307.988281 111.890625 307.984375 111.902344 307.984375 C 111.921875 307.980469 111.929688 307.980469 111.902344 307.984375 C 111.875 307.988281 111.820312 307.992188 111.777344 307.996094 C 110.792969 308.128906 109.808594 308.238281 108.820312 308.328125 C 106.382812 308.558594 103.933594 308.683594 101.488281 308.738281 C 98.914062 308.792969 96.339844 308.757812 93.769531 308.597656 C 92.679688 308.53125 91.59375 308.441406 90.507812 308.328125 C 90.019531 308.277344 89.527344 308.21875 89.039062 308.15625 C 88.929688 308.144531 88.824219 308.128906 88.714844 308.113281 C 88.710938 308.113281 88.707031 308.113281 88.703125 308.113281 C 88.847656 308.132812 88.585938 308.097656 88.703125 308.113281 C 88.640625 308.105469 88.582031 308.097656 88.519531 308.089844 C 88.296875 308.058594 88.074219 308.027344 87.851562 307.992188 C 86.378906 307.769531 84.914062 307.496094 83.464844 307.152344 C 82.535156 306.929688 81.613281 306.675781 80.707031 306.378906 C 80.445312 306.289062 80.1875 306.199219 79.929688 306.101562 C 79.847656 306.070312 79.765625 306.039062 79.683594 306.007812 C 79.65625 305.996094 79.625 305.984375 79.597656 305.972656 C 79.539062 305.949219 79.5625 305.957031 79.601562 305.976562 C 79.625 305.984375 79.648438 305.992188 79.671875 306.003906 C 79.683594 306.007812 79.699219 306.015625 79.714844 306.019531 C 79.71875 306.023438 79.722656 306.023438 79.71875 306.023438 C 79.714844 306.023438 79.714844 306.023438 79.714844 306.019531 C 79.695312 306.015625 79.640625 305.992188 79.601562 305.976562 C 79.25 305.847656 78.820312 305.910156 78.628906 306.277344 " fill-opacity="1" fill-rule="nonzero"/><path fill="#9a3c20" d="M 88.703125 308.113281 C 88.585938 308.097656 88.847656 308.132812 88.703125 308.113281 " fill-opacity="1" fill-rule="nonzero"/><path fill="#9a3c20" d="M 79.671875 306.003906 C 79.648438 305.992188 79.625 305.984375 79.601562 305.976562 C 79.640625 305.992188 79.695312 306.015625 79.714844 306.019531 C 79.699219 306.015625 79.683594 306.007812 79.671875 306.003906 " fill-opacity="1" fill-rule="nonzero"/><path fill="#9a3c20" d="M 122.121094 309.476562 C 122.09375 309.488281 122.070312 309.496094 122.046875 309.507812 C 121.972656 309.539062 122.054688 309.503906 122.121094 309.476562 " fill-opacity="1" fill-rule="nonzero"/><path fill="#9a3c20" d="M 87.925781 311.765625 C 87.828125 311.753906 88.058594 311.785156 87.925781 311.765625 " fill-opacity="1" fill-rule="nonzero"/><path fill="#9a3c20" d="M 77.226562 309.78125 C 77.050781 310.113281 77.109375 310.652344 77.5 310.828125 C 77.828125 310.972656 78.164062 311.101562 78.503906 311.21875 C 79.335938 311.515625 80.183594 311.765625 81.039062 311.988281 C 82.449219 312.359375 83.878906 312.65625 85.316406 312.898438 C 87.367188 313.25 89.4375 313.503906 91.511719 313.679688 C 94.140625 313.898438 96.78125 313.992188 99.421875 313.984375 C 102.195312 313.980469 104.964844 313.875 107.730469 313.664062 C 109.90625 313.5 112.074219 313.261719 114.230469 312.933594 C 115.738281 312.707031 117.238281 312.429688 118.722656 312.078125 C 119.648438 311.863281 120.570312 311.617188 121.476562 311.324219 C 121.851562 311.203125 122.226562 311.074219 122.589844 310.921875 C 122.664062 310.890625 122.742188 310.859375 122.8125 310.828125 C 123.179688 310.664062 123.292969 310.101562 123.085938 309.78125 C 122.859375 309.429688 122.488281 309.34375 122.121094 309.476562 C 122.054688 309.503906 121.972656 309.539062 122.046875 309.507812 C 122.070312 309.496094 122.09375 309.488281 122.121094 309.476562 C 122.15625 309.464844 122.183594 309.449219 122.175781 309.453125 C 122.128906 309.46875 122.085938 309.492188 122.039062 309.507812 C 121.847656 309.585938 121.660156 309.652344 121.46875 309.71875 C 120.699219 309.984375 119.917969 310.207031 119.132812 310.410156 C 117.808594 310.75 116.464844 311.023438 115.117188 311.253906 C 114.6875 311.328125 114.257812 311.398438 113.824219 311.464844 C 113.59375 311.5 113.363281 311.53125 113.132812 311.566406 C 113.023438 311.582031 112.914062 311.597656 112.804688 311.609375 C 112.75 311.621094 112.695312 311.628906 112.636719 311.632812 C 112.8125 311.613281 112.632812 311.632812 112.558594 311.644531 C 111.507812 311.78125 110.457031 311.898438 109.402344 311.996094 C 106.800781 312.242188 104.1875 312.375 101.574219 312.433594 C 98.832031 312.492188 96.082031 312.457031 93.339844 312.285156 C 92.179688 312.214844 91.019531 312.121094 89.863281 311.996094 C 89.339844 311.941406 88.816406 311.878906 88.292969 311.816406 C 88.175781 311.800781 88.0625 311.785156 87.945312 311.769531 C 87.9375 311.769531 87.929688 311.765625 87.925781 311.765625 C 88.058594 311.785156 87.828125 311.753906 87.925781 311.765625 C 87.925781 311.765625 87.921875 311.765625 87.921875 311.765625 C 87.855469 311.757812 87.789062 311.75 87.726562 311.738281 C 87.488281 311.707031 87.25 311.671875 87.011719 311.636719 C 85.441406 311.398438 83.875 311.109375 82.332031 310.738281 C 81.339844 310.5 80.355469 310.234375 79.386719 309.914062 C 79.109375 309.820312 78.832031 309.722656 78.554688 309.621094 C 78.46875 309.585938 78.382812 309.554688 78.292969 309.519531 C 78.265625 309.507812 78.234375 309.492188 78.203125 309.480469 C 78.144531 309.457031 78.164062 309.464844 78.199219 309.480469 C 78.222656 309.488281 78.246094 309.5 78.269531 309.507812 C 78.28125 309.515625 78.296875 309.519531 78.3125 309.527344 C 78.320312 309.53125 78.320312 309.53125 78.320312 309.53125 C 78.316406 309.53125 78.316406 309.527344 78.3125 309.527344 C 78.292969 309.519531 78.234375 309.496094 78.199219 309.480469 C 77.847656 309.351562 77.417969 309.417969 77.226562 309.78125 " fill-opacity="1" fill-rule="nonzero"/><path fill="#9a3c20" d="M 78.269531 309.507812 C 78.246094 309.5 78.222656 309.488281 78.199219 309.480469 C 78.234375 309.496094 78.292969 309.519531 78.3125 309.527344 C 78.296875 309.519531 78.28125 309.515625 78.269531 309.507812 " fill-opacity="1" fill-rule="nonzero"/><path fill="#9a3c20" d="M 141.109375 234.234375 C 142.371094 235.074219 143.367188 236.265625 144.59375 237.152344 C 145.820312 238.042969 147.460938 238.617188 148.847656 238.003906 C 150.140625 237.429688 150.847656 235.925781 150.808594 234.511719 C 150.679688 229.914062 143.414062 223.199219 135.582031 224.773438 C 130.429688 225.808594 126.15625 230.660156 126.246094 235.921875 C 126.320312 240.414062 129.199219 244.316406 132 247.832031 C 138.503906 256.003906 145.277344 263.957031 152.046875 271.910156 C 153.304688 273.390625 154.65625 274.933594 156.492188 275.574219 C 159.46875 276.617188 164.117188 274.195312 159.667969 268.832031 C 142.863281 248.578125 140.441406 245.917969 137.195312 241.597656 C 132.824219 235.78125 136.746094 231.328125 141.109375 234.234375 " fill-opacity="1" fill-rule="nonzero"/><path fill="#9a3c20" d="M 102.972656 302.453125 C 102.972656 300.796875 101.628906 299.449219 99.972656 299.449219 C 98.316406 299.449219 96.972656 300.796875 96.972656 302.453125 C 96.972656 304.113281 98.316406 305.460938 99.972656 305.460938 C 101.628906 305.460938 102.972656 304.113281 102.972656 302.453125 " fill-opacity="1" fill-rule="nonzero"/><path fill="#ffffff" d="M 102.972656 301.082031 C 102.972656 299.421875 101.628906 298.078125 99.972656 298.078125 C 98.316406 298.078125 96.972656 299.421875 96.972656 301.082031 C 96.972656 302.742188 98.316406 304.085938 99.972656 304.085938 C 101.628906 304.085938 102.972656 302.742188 102.972656 301.082031 " fill-opacity="1" fill-rule="nonzero"/><path fill="#ad1426" d="M 99.75 294.335938 C 102.34375 293.628906 104.746094 292.738281 106.894531 291.300781 C 107.476562 290.914062 107.675781 290.152344 107.375 289.523438 C 104.441406 283.386719 101.601562 277 101.535156 270.21875 L 96.972656 270.21875 L 96.699219 282.464844 C 96.660156 286.117188 97.105469 289.773438 98.007812 293.3125 C 98.207031 294.082031 98.988281 294.546875 99.75 294.335938 " fill-opacity="1" fill-rule="nonzero"/><path fill="#c41c28" d="M 91.976562 297 C 92.683594 297.085938 93.375 296.746094 93.730469 296.128906 C 97.136719 290.257812 99.351562 280.574219 98.117188 272.828125 L 92.574219 272.144531 C 91.652344 277.894531 88.03125 286.230469 83.535156 290.679688 C 82.773438 291.433594 82.84375 292.6875 83.683594 293.351562 C 86.050781 295.238281 89.035156 296.65625 91.976562 297 " fill-opacity="1" fill-rule="nonzero"/><path fill="#9a3c20" d="M 150.148438 248.195312 C 150.800781 248.933594 151.875 247.847656 151.226562 247.117188 C 150.585938 246.371094 149.511719 247.453125 150.148438 248.195312 " fill-opacity="1" fill-rule="nonzero"/><path fill="#9a3c20" d="M 81.15625 267.367188 C 80.722656 267.457031 80.285156 267.539062 79.847656 267.621094 C 80.179688 267.953125 80.507812 268.289062 80.820312 268.640625 C 80.933594 268.214844 81.046875 267.792969 81.15625 267.367188 " fill-opacity="1" fill-rule="nonzero"/><path fill="#9a3c20" d="M 116.195312 263.75 C 116.449219 263.019531 116.726562 262.296875 117.007812 261.574219 C 116.363281 262.011719 115.714844 262.445312 115.074219 262.886719 C 115.449219 263.175781 115.820312 263.464844 116.195312 263.75 " fill-opacity="1" fill-rule="nonzero"/><path fill="#9a3c20" d="M 119.632812 251.714844 C 119.929688 248.027344 119.515625 244.25 118.269531 240.757812 C 115.910156 234.125 110.722656 228.929688 104.160156 226.433594 C 97.445312 223.878906 89.570312 224.402344 83.210938 227.726562 C 80.078125 229.363281 77.335938 231.734375 75.351562 234.667969 C 73.265625 237.757812 72.128906 241.398438 71.753906 245.085938 C 71.003906 252.53125 73.378906 260.832031 78.570312 266.324219 C 78.988281 266.765625 79.417969 267.191406 79.847656 267.621094 C 80.285156 267.539062 80.722656 267.457031 81.15625 267.367188 C 81.046875 267.792969 80.933594 268.214844 80.820312 268.640625 C 80.507812 268.289062 80.179688 267.953125 79.847656 267.621094 C 76.214844 268.28125 72.523438 268.597656 68.84375 268.851562 C 65.335938 269.097656 61.765625 269.132812 58.292969 269.734375 C 52.570312 270.730469 46.035156 273.90625 44.839844 280.199219 C 44.390625 282.574219 44.757812 285.128906 45.925781 287.253906 C 47.101562 289.402344 49.125 290.867188 51.441406 291.582031 C 54.640625 292.570312 58.152344 292.257812 61.386719 291.613281 C 65.320312 290.832031 69.085938 289.375 73.003906 288.511719 C 74.019531 288.285156 75.222656 288.046875 76.203125 288.175781 C 76.875 288.265625 77.320312 288.523438 77.640625 289.082031 C 78.019531 289.734375 78.132812 290.53125 78.171875 291.28125 C 78.230469 292.421875 78.144531 293.570312 78.023438 294.703125 C 77.683594 297.808594 76.996094 300.886719 76.21875 303.910156 C 75.296875 307.488281 74.195312 311.023438 72.921875 314.492188 C 71.730469 317.726562 70.382812 320.90625 68.746094 323.945312 C 67.621094 326.035156 66.582031 328.175781 65.6875 330.378906 C 63.777344 335.089844 62.078125 340.972656 64.09375 345.929688 C 65.148438 348.523438 67.175781 350.484375 69.699219 351.65625 C 72.769531 353.085938 76.414062 353.855469 79.78125 353.261719 C 85.390625 352.269531 88.460938 347.152344 90.230469 342.191406 C 91.320312 339.136719 91.867188 335.890625 93.183594 332.917969 C 94.261719 330.492188 95.902344 327.8125 98.527344 326.859375 C 100.585938 326.109375 102.683594 326.753906 104.285156 328.203125 C 106.917969 330.582031 108.125 334.214844 109.007812 337.542969 C 110.335938 342.535156 112.074219 348.160156 116.421875 351.359375 C 118.726562 353.058594 121.613281 353.660156 124.433594 353.40625 C 127.738281 353.101562 131.273438 352.015625 133.816406 349.808594 C 138.058594 346.121094 137.878906 340.089844 136.554688 335.097656 C 135.867188 332.492188 134.859375 329.972656 133.714844 327.535156 C 132.625 325.203125 131.328125 322.980469 130.25 320.644531 C 127.230469 314.101562 125.007812 307.082031 123.515625 300.03125 C 122.957031 297.382812 122.445312 294.660156 122.457031 291.941406 C 122.46875 289.453125 123.332031 286.800781 124.660156 284.558594 C 128.070312 278.800781 134.242188 275.285156 139.636719 271.652344 C 142.734375 269.566406 145.75 267.351562 148.324219 264.625 C 150.796875 262 153.09375 258.777344 153.628906 255.121094 C 154.0625 252.160156 153.167969 249.371094 151.226562 247.117188 C 151.875 247.847656 150.800781 248.933594 150.148438 248.195312 C 152.066406 250.425781 152.652344 253.265625 151.871094 256.089844 C 150.839844 259.804688 148.101562 262.898438 145.316406 265.433594 C 140.316406 269.988281 134.152344 273 128.996094 277.363281 C 124.613281 281.070312 120.867188 286.203125 120.933594 292.191406 C 120.964844 294.90625 121.460938 297.632812 122.015625 300.28125 C 122.738281 303.746094 123.679688 307.167969 124.757812 310.539062 C 125.867188 314 127.136719 317.417969 128.625 320.734375 C 129.695312 323.117188 130.992188 325.375 132.125 327.722656 C 134.300781 332.246094 136.347656 337.480469 135.816406 342.597656 C 135.5625 345.035156 134.480469 347.277344 132.589844 348.855469 C 131.457031 349.800781 130.09375 350.453125 128.707031 350.917969 C 127.027344 351.480469 125.277344 351.886719 123.5 351.933594 C 120.847656 352.003906 118.320312 351.167969 116.363281 349.347656 C 114.503906 347.609375 113.253906 345.292969 112.324219 342.949219 C 110.113281 337.378906 109.71875 330.234375 104.503906 326.429688 C 102.671875 325.09375 100.332031 324.609375 98.171875 325.371094 C 95.519531 326.304688 93.660156 328.597656 92.40625 331.023438 C 90.855469 334.019531 90.21875 337.308594 89.199219 340.492188 C 88.398438 342.976562 87.398438 345.4375 85.859375 347.558594 C 84.394531 349.585938 82.359375 351.117188 79.902344 351.683594 C 76.804688 352.394531 73.230469 351.648438 70.398438 350.308594 C 68.046875 349.195312 66.144531 347.367188 65.320312 344.859375 C 64.539062 342.492188 64.648438 339.914062 65.105469 337.496094 C 66.046875 332.527344 68.339844 328.097656 70.625 323.648438 C 73.878906 317.308594 76.183594 310.394531 77.898438 303.488281 C 78.632812 300.515625 79.261719 297.5 79.574219 294.457031 C 79.769531 292.527344 79.953125 290.3125 79.066406 288.519531 C 78.179688 286.722656 76.246094 286.480469 74.449219 286.710938 C 70.933594 287.160156 67.515625 288.429688 64.121094 289.382812 C 60.695312 290.34375 56.9375 291.089844 53.382812 290.476562 C 51.125 290.082031 48.933594 289.070312 47.625 287.117188 C 46.417969 285.316406 45.925781 282.96875 46.269531 280.828125 C 46.667969 278.371094 48.097656 276.273438 50.019531 274.734375 C 55.503906 270.347656 63.199219 270.800781 69.808594 270.308594 C 73.742188 270.019531 77.695312 269.636719 81.5625 268.835938 C 82.15625 268.714844 82.257812 267.960938 81.898438 267.5625 C 80.542969 266.054688 79.042969 264.726562 77.875 263.050781 C 76.867188 261.601562 76.011719 260.042969 75.324219 258.417969 C 73.917969 255.101562 73.171875 251.488281 73.148438 247.886719 C 73.128906 244.398438 73.792969 240.863281 75.34375 237.722656 C 76.851562 234.667969 79.167969 232.082031 82.007812 230.207031 C 87.648438 226.476562 94.957031 225.433594 101.464844 227.167969 C 107.828125 228.863281 113.21875 233.285156 116.019531 239.261719 C 117.472656 242.359375 118.167969 245.789062 118.199219 249.203125 C 118.21875 251.175781 118.039062 253.152344 117.585938 255.074219 C 117.121094 257.039062 116.414062 258.929688 115.683594 260.808594 C 115.355469 261.648438 115.023438 262.492188 114.726562 263.34375 C 114.511719 263.957031 115.304688 264.578125 115.84375 264.207031 C 117.214844 263.257812 118.613281 262.355469 119.960938 261.378906 C 121.988281 259.902344 123.914062 258.292969 125.789062 256.636719 C 128.890625 253.898438 131.761719 250.851562 135.1875 248.519531 C 137.644531 246.847656 140.507812 245.34375 143.542969 245.234375 C 146.152344 245.136719 148.433594 246.253906 150.148438 248.195312 C 149.511719 247.453125 150.585938 246.371094 151.226562 247.117188 C 149.574219 245.246094 147.390625 244.019531 144.902344 243.753906 C 141.996094 243.441406 139.082031 244.488281 136.574219 245.871094 C 132.808594 247.945312 129.777344 250.964844 126.625 253.835938 C 124.472656 255.800781 122.28125 257.738281 119.953125 259.496094 C 118.992188 260.21875 118.003906 260.898438 117.007812 261.574219 C 116.726562 262.296875 116.449219 263.019531 116.195312 263.75 C 115.820312 263.464844 115.449219 263.175781 115.074219 262.886719 C 115.714844 262.445312 116.363281 262.011719 117.007812 261.574219 C 117.449219 260.433594 117.902344 259.292969 118.292969 258.132812 C 118.992188 256.042969 119.457031 253.910156 119.632812 251.714844 " fill-opacity="1" fill-rule="nonzero"/><path fill="#ffffff" d="M 81.15625 265.839844 C 80.722656 265.929688 80.285156 266.015625 79.847656 266.09375 C 80.175781 266.429688 80.507812 266.765625 80.820312 267.117188 C 80.933594 266.691406 81.046875 266.265625 81.15625 265.839844 " fill-opacity="1" fill-rule="nonzero"/><path fill="#ffffff" d="M 116.195312 262.222656 C 116.449219 261.492188 116.726562 260.769531 117.007812 260.046875 C 116.363281 260.484375 115.714844 260.917969 115.074219 261.363281 C 115.449219 261.648438 115.820312 261.9375 116.195312 262.222656 " fill-opacity="1" fill-rule="nonzero"/><path fill="#ffffff" d="M 119.617188 250.378906 C 119.933594 246.742188 119.558594 243.011719 118.382812 239.550781 C 116.164062 233.023438 111.21875 227.835938 104.878906 225.191406 C 98.257812 222.433594 90.503906 223.113281 84.199219 226.402344 C 81.0625 228.039062 78.300781 230.351562 76.179688 233.1875 C 73.929688 236.199219 72.542969 239.808594 72.03125 243.527344 C 70.992188 251.050781 73.367188 259.339844 78.644531 264.878906 C 79.039062 265.289062 79.445312 265.691406 79.847656 266.09375 C 80.285156 266.015625 80.722656 265.929688 81.15625 265.839844 C 81.046875 266.265625 80.933594 266.691406 80.820312 267.117188 C 80.507812 266.765625 80.175781 266.429688 79.847656 266.09375 C 76.214844 266.753906 72.523438 267.070312 68.84375 267.328125 C 65.335938 267.574219 61.765625 267.605469 58.292969 268.210938 C 52.570312 269.203125 46.035156 272.382812 44.839844 278.671875 C 44.390625 281.050781 44.757812 283.601562 45.925781 285.730469 C 47.101562 287.875 49.125 289.339844 51.441406 290.054688 C 54.640625 291.042969 58.152344 290.730469 61.386719 290.085938 C 65.320312 289.304688 69.085938 287.851562 73.003906 286.984375 C 74.019531 286.761719 75.222656 286.519531 76.203125 286.652344 C 76.875 286.742188 77.320312 287 77.640625 287.558594 C 78.019531 288.210938 78.132812 289.007812 78.171875 289.753906 C 78.230469 290.894531 78.144531 292.042969 78.023438 293.179688 C 77.683594 296.285156 76.996094 299.359375 76.21875 302.382812 C 75.296875 305.960938 74.195312 309.496094 72.921875 312.964844 C 71.730469 316.203125 70.382812 319.378906 68.746094 322.417969 C 67.621094 324.511719 66.582031 326.648438 65.6875 328.851562 C 63.777344 333.566406 62.078125 339.449219 64.09375 344.40625 C 65.148438 346.996094 67.175781 348.957031 69.699219 350.132812 C 72.769531 351.5625 76.414062 352.332031 79.78125 351.734375 C 85.390625 350.742188 88.460938 345.625 90.230469 340.667969 C 91.320312 337.609375 91.867188 334.363281 93.183594 331.390625 C 94.261719 328.964844 95.902344 326.289062 98.527344 325.332031 C 100.585938 324.582031 102.683594 325.230469 104.285156 326.675781 C 106.917969 329.058594 108.125 332.6875 109.007812 336.019531 C 110.335938 341.011719 112.074219 346.632812 116.421875 349.835938 C 118.726562 351.53125 121.613281 352.136719 124.433594 351.878906 C 127.738281 351.578125 131.273438 350.488281 133.816406 348.28125 C 138.058594 344.59375 137.878906 338.566406 136.554688 333.574219 C 135.867188 330.964844 134.859375 328.445312 133.714844 326.007812 C 132.625 323.679688 131.328125 321.453125 130.25 319.117188 C 127.230469 312.574219 125.007812 305.554688 123.515625 298.507812 C 122.957031 295.859375 122.445312 293.132812 122.457031 290.417969 C 122.46875 287.925781 123.332031 285.273438 124.660156 283.03125 C 128.070312 277.273438 134.242188 273.757812 139.636719 270.128906 C 142.734375 268.042969 145.75 265.824219 148.324219 263.097656 C 150.796875 260.472656 153.09375 257.25 153.628906 253.597656 C 154.0625 250.636719 153.167969 247.84375 151.226562 245.589844 C 151.875 246.324219 150.800781 247.40625 150.148438 246.667969 C 152.066406 248.898438 152.652344 251.738281 151.871094 254.566406 C 150.839844 258.277344 148.101562 261.375 145.316406 263.910156 C 140.316406 268.460938 134.152344 271.472656 128.996094 275.835938 C 124.613281 279.546875 120.867188 284.675781 120.933594 290.667969 C 120.964844 293.382812 121.460938 296.109375 122.015625 298.757812 C 122.738281 302.222656 123.679688 305.640625 124.757812 309.011719 C 125.867188 312.472656 127.136719 315.890625 128.625 319.207031 C 129.695312 321.589844 130.992188 323.847656 132.125 326.199219 C 134.300781 330.722656 136.347656 335.953125 135.816406 341.070312 C 135.5625 343.511719 134.480469 345.75 132.589844 347.328125 C 131.457031 348.273438 130.09375 348.925781 128.707031 349.390625 C 127.027344 349.953125 125.277344 350.363281 123.5 350.410156 C 120.847656 350.476562 118.320312 349.644531 116.363281 347.820312 C 114.503906 346.082031 113.253906 343.765625 112.324219 341.421875 C 110.113281 335.851562 109.71875 328.710938 104.503906 324.90625 C 102.671875 323.570312 100.332031 323.082031 98.171875 323.84375 C 95.519531 324.777344 93.660156 327.074219 92.40625 329.5 C 90.855469 332.492188 90.21875 335.785156 89.199219 338.964844 C 88.398438 341.449219 87.398438 343.910156 85.859375 346.035156 C 84.394531 348.058594 82.359375 349.59375 79.902344 350.15625 C 76.804688 350.867188 73.230469 350.121094 70.398438 348.78125 C 68.046875 347.667969 66.144531 345.839844 65.320312 343.332031 C 64.539062 340.96875 64.648438 338.390625 65.105469 335.96875 C 66.046875 331.003906 68.339844 326.570312 70.625 322.121094 C 73.878906 315.78125 76.183594 308.867188 77.898438 301.960938 C 78.632812 298.992188 79.261719 295.976562 79.574219 292.929688 C 79.769531 291 79.953125 288.785156 79.066406 286.992188 C 78.179688 285.195312 76.246094 284.953125 74.449219 285.183594 C 70.933594 285.636719 67.515625 286.902344 64.121094 287.859375 C 60.695312 288.820312 56.9375 289.566406 53.382812 288.949219 C 51.125 288.558594 48.933594 287.546875 47.625 285.59375 C 46.417969 283.789062 45.925781 281.441406 46.269531 279.300781 C 46.667969 276.847656 48.097656 274.746094 50.019531 273.210938 C 55.503906 268.820312 63.199219 269.273438 69.808594 268.785156 C 73.742188 268.492188 77.695312 268.113281 81.5625 267.3125 C 82.15625 267.1875 82.257812 266.433594 81.898438 266.035156 C 80.566406 264.554688 79.089844 263.253906 77.933594 261.613281 C 76.886719 260.121094 75.988281 258.511719 75.285156 256.824219 C 73.914062 253.53125 73.226562 249.949219 73.316406 246.378906 C 73.496094 239.285156 76.996094 232.78125 82.953125 228.898438 C 88.550781 225.246094 95.738281 223.980469 102.191406 225.855469 C 108.386719 227.660156 113.5625 232.226562 116.195312 238.113281 C 117.558594 241.164062 118.195312 244.523438 118.203125 247.859375 C 118.207031 249.847656 118.007812 251.828125 117.535156 253.757812 C 117.066406 255.679688 116.363281 257.53125 115.648438 259.371094 C 115.332031 260.183594 115.015625 260.996094 114.726562 261.820312 C 114.511719 262.429688 115.304688 263.050781 115.84375 262.679688 C 117.214844 261.734375 118.613281 260.832031 119.960938 259.851562 C 121.988281 258.378906 123.914062 256.765625 125.789062 255.109375 C 128.890625 252.371094 131.761719 249.324219 135.1875 246.992188 C 137.644531 245.320312 140.507812 243.816406 143.542969 243.707031 C 146.152344 243.613281 148.433594 244.726562 150.148438 246.667969 C 149.511719 245.929688 150.585938 244.84375 151.226562 245.589844 C 149.574219 243.71875 147.390625 242.496094 144.902344 242.226562 C 141.996094 241.917969 139.082031 242.964844 136.574219 244.34375 C 132.808594 246.421875 129.777344 249.441406 126.625 252.3125 C 124.472656 254.273438 122.28125 256.214844 119.953125 257.972656 C 118.992188 258.695312 118.003906 259.375 117.007812 260.046875 C 116.726562 260.769531 116.449219 261.492188 116.195312 262.222656 C 115.820312 261.9375 115.449219 261.648438 115.074219 261.363281 C 115.714844 260.917969 116.363281 260.484375 117.007812 260.046875 C 117.4375 258.9375 117.875 257.832031 118.257812 256.703125 C 118.953125 254.644531 119.429688 252.542969 119.617188 250.378906 " fill-opacity="1" fill-rule="nonzero"/><path fill="#ffffff" d="M 150.148438 246.667969 C 150.800781 247.40625 151.875 246.324219 151.226562 245.589844 C 150.585938 244.84375 149.511719 245.929688 150.148438 246.667969 " fill-opacity="1" fill-rule="nonzero"/><path fill="#ffffff" d="M 141.109375 232.25 C 142.371094 233.089844 143.367188 234.28125 144.59375 235.171875 C 145.820312 236.0625 147.460938 236.636719 148.847656 236.019531 C 150.140625 235.445312 150.847656 233.945312 150.808594 232.527344 C 150.679688 227.929688 143.414062 221.214844 135.582031 222.789062 C 130.429688 223.824219 126.15625 228.675781 126.246094 233.9375 C 126.320312 238.433594 129.199219 242.332031 132 245.847656 C 138.503906 254.019531 145.277344 261.972656 152.046875 269.925781 C 153.304688 271.410156 154.65625 272.953125 156.492188 273.59375 C 159.46875 274.632812 164.117188 272.210938 159.667969 266.851562 C 142.863281 246.59375 140.441406 243.933594 137.195312 239.613281 C 132.824219 233.796875 136.746094 229.34375 141.109375 232.25 " fill-opacity="1" fill-rule="nonzero"/><path fill="#db232b" d="M 155.453125 261.773438 C 152.324219 262.519531 149.054688 263.074219 146.535156 263.441406 C 148.628906 265.914062 151.851562 269.699219 152.21875 270.128906 C 155.300781 269.695312 158.472656 268.738281 160.535156 268.03125 C 160.058594 267.277344 160.015625 267.261719 155.453125 261.773438 " fill-opacity="1" fill-rule="nonzero"/><path fill="#db232b" d="M 145.835938 250.242188 C 142.503906 250.976562 139.144531 251.496094 136.816406 251.808594 C 138.648438 254.042969 140.492188 256.261719 142.34375 258.472656 C 145.382812 258.234375 148.714844 257.335938 151.113281 256.5625 C 149.015625 254.046875 147.285156 251.976562 145.835938 250.242188 " fill-opacity="1" fill-rule="nonzero"/><path fill="#db232b" d="M 141.1875 244.652344 C 138.300781 241.144531 136.691406 239.152344 135.972656 237.605469 C 132.359375 237.777344 128.917969 237.726562 126.9375 237.671875 C 127.851562 240.300781 129.546875 242.714844 131.304688 244.972656 C 134.460938 245.449219 138.335938 245.082031 141.1875 244.652344 " fill-opacity="1" fill-rule="nonzero"/><path fill="#db232b" d="M 128.015625 228.03125 C 130.417969 230.65625 133.53125 232.765625 135.375 233.898438 C 135.726562 232.179688 137.105469 231.164062 138.839844 231.363281 C 138.5625 228.605469 138.851562 224.980469 139.117188 222.613281 C 134.40625 222.160156 130.332031 224.460938 128.015625 228.03125 " fill-opacity="1" fill-rule="nonzero"/><path fill="#db232b" d="M 148.847656 236.019531 C 150.140625 235.445312 150.847656 233.945312 150.808594 232.527344 C 150.746094 230.320312 149.039062 227.621094 146.410156 225.585938 C 145.773438 227.679688 144.609375 230.851562 142.761719 233.597656 C 143.355469 234.140625 143.941406 234.699219 144.59375 235.171875 C 145.820312 236.0625 147.460938 236.636719 148.847656 236.019531 " fill-opacity="1" fill-rule="nonzero"/><path fill="#191616" d="M 63.269531 241.621094 C 64.6875 244.085938 75.476562 240.511719 87.363281 233.640625 C 99.25 226.769531 107.734375 219.203125 106.316406 216.742188 C 105.351562 215.070312 100.070312 216.179688 93.058594 219.214844 C 91.300781 212.78125 86.730469 197.527344 82.292969 194.964844 C 76.644531 191.703125 54.210938 205.40625 54.261719 213.238281 C 54.292969 217.898438 66.695312 227.207031 72.292969 231.175781 C 66.003906 235.8125 62.289062 239.925781 63.269531 241.621094 " fill-opacity="1" fill-rule="nonzero"/><path fill="#db232b" d="M 68.898438 228.703125 C 70.164062 229.652344 71.328125 230.492188 72.292969 231.171875 C 72.292969 231.171875 78.046875 225.261719 93.058594 219.214844 C 92.714844 217.960938 92.265625 216.371094 91.730469 214.605469 C 87.371094 216.136719 76.996094 220.40625 68.898438 228.703125 " fill-opacity="1" fill-rule="nonzero"/><path fill="#9a3c20" d="M 83.324219 256.453125 C 84.75 256.148438 85.71875 255.015625 85.488281 253.917969 C 85.253906 252.820312 83.910156 252.175781 82.480469 252.480469 C 81.050781 252.785156 80.082031 253.917969 80.316406 255.015625 C 80.546875 256.113281 81.894531 256.753906 83.324219 256.453125 " fill-opacity="1" fill-rule="nonzero"/><path fill="#9a3c20" d="M 111.597656 250.453125 C 113.023438 250.148438 113.996094 249.011719 113.761719 247.917969 C 113.53125 246.820312 112.183594 246.175781 110.753906 246.480469 C 109.328125 246.78125 108.359375 247.917969 108.589844 249.015625 C 108.824219 250.113281 110.167969 250.753906 111.597656 250.453125 " fill-opacity="1" fill-rule="nonzero"/><path fill="#9a3c20" d="M 102.503906 251.1875 C 102.5 251.191406 102.5 251.199219 102.496094 251.199219 C 102.492188 251.203125 102.488281 251.207031 102.488281 251.210938 C 102.425781 251.296875 102.570312 251.105469 102.503906 251.1875 " fill-opacity="1" fill-rule="nonzero"/><path fill="#9a3c20" d="M 90.714844 252.886719 C 90.730469 252.917969 90.78125 252.945312 90.761719 252.925781 C 90.742188 252.914062 90.71875 252.898438 90.714844 252.886719 " fill-opacity="1" fill-rule="nonzero"/><path fill="#9a3c20" d="M 92.285156 253.804688 C 92.269531 253.796875 92.257812 253.792969 92.246094 253.789062 C 92.292969 253.808594 92.332031 253.824219 92.285156 253.804688 " fill-opacity="1" fill-rule="nonzero"/><path fill="#9a3c20" d="M 101.066406 252.625 C 101.058594 252.628906 101.054688 252.632812 101.050781 252.636719 C 101.03125 252.652344 101.046875 252.640625 101.066406 252.625 " fill-opacity="1" fill-rule="nonzero"/><path fill="#9a3c20" d="M 94.484375 254.398438 C 94.445312 254.394531 94.40625 254.386719 94.363281 254.378906 C 94.292969 254.371094 94.222656 254.359375 94.152344 254.34375 C 93.890625 254.300781 93.632812 254.242188 93.378906 254.171875 C 93.097656 254.097656 92.820312 254.007812 92.546875 253.90625 C 92.472656 253.878906 92.402344 253.851562 92.328125 253.820312 C 92.3125 253.816406 92.296875 253.808594 92.285156 253.804688 C 92.332031 253.824219 92.292969 253.808594 92.246094 253.789062 C 92.257812 253.792969 92.269531 253.796875 92.285156 253.804688 C 92.277344 253.800781 92.273438 253.796875 92.261719 253.792969 C 92.136719 253.738281 92.011719 253.679688 91.890625 253.617188 C 91.628906 253.488281 91.378906 253.34375 91.136719 253.183594 C 91.023438 253.109375 90.914062 253.035156 90.804688 252.953125 C 90.796875 252.945312 90.777344 252.9375 90.761719 252.925781 C 90.78125 252.945312 90.730469 252.917969 90.714844 252.886719 C 90.71875 252.898438 90.742188 252.914062 90.761719 252.925781 C 90.757812 252.921875 90.75 252.914062 90.734375 252.898438 C 90.675781 252.851562 90.617188 252.804688 90.558594 252.753906 C 90.253906 252.5 89.773438 252.433594 89.480469 252.753906 C 89.21875 253.039062 89.15625 253.558594 89.480469 253.835938 C 91.269531 255.355469 93.652344 256.066406 95.984375 255.988281 C 98.332031 255.914062 100.59375 255.023438 102.386719 253.503906 C 103.289062 252.734375 104.070312 251.777344 104.582031 250.703125 C 104.753906 250.34375 104.691406 249.859375 104.308594 249.65625 C 103.96875 249.476562 103.449219 249.546875 103.265625 249.929688 C 103.0625 250.359375 102.816406 250.765625 102.539062 251.144531 C 102.523438 251.164062 102.507812 251.183594 102.496094 251.199219 C 102.5 251.199219 102.5 251.191406 102.503906 251.1875 C 102.570312 251.105469 102.425781 251.296875 102.488281 251.210938 C 102.488281 251.207031 102.492188 251.203125 102.496094 251.199219 C 102.464844 251.242188 102.433594 251.28125 102.398438 251.320312 C 102.324219 251.414062 102.242188 251.503906 102.164062 251.59375 C 101.992188 251.785156 101.8125 251.964844 101.628906 252.140625 C 101.445312 252.308594 101.253906 252.46875 101.0625 252.625 C 101.058594 252.628906 101.054688 252.632812 101.050781 252.636719 C 101.054688 252.632812 101.058594 252.628906 101.066406 252.625 C 101.074219 252.621094 101.078125 252.613281 101.085938 252.609375 C 101.09375 252.605469 101.097656 252.597656 101.101562 252.59375 C 101.101562 252.597656 101.097656 252.601562 101.085938 252.609375 C 101.078125 252.613281 101.074219 252.621094 101.066406 252.625 C 101.046875 252.640625 101.03125 252.652344 101.050781 252.636719 C 101.042969 252.640625 101.039062 252.644531 101.035156 252.648438 C 100.988281 252.683594 100.941406 252.714844 100.894531 252.75 C 100.785156 252.832031 100.671875 252.90625 100.558594 252.980469 C 100.132812 253.261719 99.6875 253.507812 99.222656 253.71875 C 99.167969 253.746094 99.113281 253.769531 99.058594 253.792969 C 99.054688 253.796875 99.050781 253.796875 99.046875 253.796875 C 99.066406 253.789062 99.085938 253.78125 99.105469 253.773438 C 99.101562 253.773438 99 253.820312 99.046875 253.796875 C 99.03125 253.804688 99.011719 253.8125 98.996094 253.816406 C 98.875 253.867188 98.753906 253.910156 98.632812 253.953125 C 98.390625 254.039062 98.144531 254.117188 97.894531 254.183594 C 97.636719 254.25 97.378906 254.308594 97.121094 254.351562 C 97.046875 254.367188 96.976562 254.378906 96.902344 254.390625 C 96.871094 254.394531 96.839844 254.398438 96.808594 254.402344 C 96.71875 254.414062 96.851562 254.398438 96.855469 254.394531 C 96.726562 254.4375 96.554688 254.429688 96.421875 254.441406 C 95.882812 254.484375 95.339844 254.480469 94.804688 254.433594 C 94.6875 254.421875 94.546875 254.425781 94.4375 254.394531 C 94.441406 254.394531 94.574219 254.414062 94.484375 254.398438 " fill-opacity="1" fill-rule="nonzero"/><path fill="#9a3c20" d="M 99.105469 253.773438 C 99.085938 253.78125 99.066406 253.789062 99.046875 253.796875 C 99 253.820312 99.101562 253.773438 99.105469 253.773438 " fill-opacity="1" fill-rule="nonzero"/><path fill="#9a3c20" d="M 101.085938 252.609375 C 101.097656 252.601562 101.101562 252.597656 101.101562 252.59375 C 101.097656 252.597656 101.09375 252.605469 101.085938 252.609375 " fill-opacity="1" fill-rule="nonzero"/><path fill="#ae5535" d="M 87.460938 247.429688 C 88.660156 247.175781 89.429688 245.992188 89.175781 244.789062 C 88.917969 243.585938 87.738281 242.816406 86.535156 243.074219 C 85.335938 243.328125 84.566406 244.511719 84.820312 245.714844 C 85.078125 246.917969 86.257812 247.683594 87.460938 247.429688 " fill-opacity="1" fill-rule="nonzero"/><path fill="#ae5535" d="M 103.433594 244.039062 C 104.636719 243.785156 105.40625 242.601562 105.152344 241.398438 C 104.894531 240.195312 103.714844 239.425781 102.511719 239.683594 C 101.3125 239.9375 100.542969 241.121094 100.796875 242.324219 C 101.050781 243.527344 102.234375 244.292969 103.433594 244.039062 " fill-opacity="1" fill-rule="nonzero"/><path fill="#83362e" d="M 84.921875 246.050781 C 85.308594 247.054688 86.375 247.660156 87.460938 247.429688 C 89.460938 247.007812 89.871094 244.320312 88.089844 243.3125 C 88.84375 245.28125 86.714844 247.0625 84.921875 246.050781 " fill-opacity="1" fill-rule="nonzero"/><path fill="#83362e" d="M 100.898438 242.660156 C 101.285156 243.664062 102.351562 244.269531 103.433594 244.039062 C 105.433594 243.613281 105.847656 240.929688 104.066406 239.921875 C 104.820312 241.890625 102.691406 243.671875 100.898438 242.660156 " fill-opacity="1" fill-rule="nonzero"/><path fill="#ffffff" d="M 92.03125 252.609375 C 92.019531 252.605469 92.003906 252.597656 91.992188 252.59375 C 92.039062 252.617188 92.078125 252.632812 92.03125 252.609375 " fill-opacity="1" fill-rule="nonzero"/><path fill="#ffffff" d="M 102.253906 249.996094 C 102.25 250 102.246094 250.003906 102.242188 250.007812 C 102.238281 250.011719 102.238281 250.011719 102.234375 250.015625 C 102.171875 250.105469 102.320312 249.914062 102.253906 249.996094 " fill-opacity="1" fill-rule="nonzero"/><path fill="#ffffff" d="M 90.460938 251.691406 C 90.476562 251.722656 90.527344 251.753906 90.507812 251.730469 C 90.488281 251.71875 90.46875 251.703125 90.460938 251.691406 " fill-opacity="1" fill-rule="nonzero"/><path fill="#ffffff" d="M 98.851562 252.578125 C 98.835938 252.589844 98.8125 252.597656 98.792969 252.605469 C 98.746094 252.625 98.847656 252.582031 98.851562 252.578125 " fill-opacity="1" fill-rule="nonzero"/><path fill="#ffffff" d="M 100.835938 251.414062 C 100.84375 251.40625 100.847656 251.402344 100.851562 251.402344 C 100.84375 251.40625 100.839844 251.410156 100.835938 251.414062 " fill-opacity="1" fill-rule="nonzero"/><path fill="#ffffff" d="M 94.234375 253.203125 C 94.191406 253.199219 94.152344 253.191406 94.109375 253.1875 C 94.039062 253.175781 93.96875 253.164062 93.898438 253.152344 C 93.640625 253.105469 93.382812 253.046875 93.125 252.980469 C 92.84375 252.902344 92.566406 252.816406 92.296875 252.714844 C 92.222656 252.6875 92.148438 252.65625 92.074219 252.628906 C 92.058594 252.621094 92.046875 252.617188 92.03125 252.609375 C 92.078125 252.632812 92.039062 252.617188 91.992188 252.59375 C 92.003906 252.597656 92.019531 252.605469 92.03125 252.609375 C 92.027344 252.605469 92.019531 252.605469 92.011719 252.601562 C 91.886719 252.542969 91.761719 252.488281 91.636719 252.425781 C 91.378906 252.292969 91.125 252.148438 90.882812 251.988281 C 90.769531 251.914062 90.660156 251.839844 90.550781 251.761719 C 90.542969 251.753906 90.527344 251.742188 90.507812 251.730469 C 90.527344 251.753906 90.476562 251.722656 90.460938 251.691406 C 90.46875 251.703125 90.488281 251.71875 90.507812 251.730469 C 90.503906 251.726562 90.496094 251.71875 90.480469 251.707031 C 90.421875 251.660156 90.363281 251.609375 90.304688 251.5625 C 90 251.304688 89.523438 251.242188 89.226562 251.5625 C 88.96875 251.847656 88.902344 252.363281 89.226562 252.640625 C 91.019531 254.160156 93.398438 254.875 95.730469 254.796875 C 98.082031 254.71875 100.339844 253.828125 102.132812 252.308594 C 103.039062 251.542969 103.816406 250.582031 104.328125 249.507812 C 104.5 249.148438 104.441406 248.667969 104.054688 248.464844 C 103.714844 248.285156 103.195312 248.351562 103.011719 248.738281 C 102.808594 249.164062 102.566406 249.570312 102.285156 249.953125 C 102.269531 249.96875 102.257812 249.988281 102.242188 250.007812 C 102.246094 250.003906 102.25 250 102.253906 249.996094 C 102.320312 249.914062 102.171875 250.105469 102.234375 250.015625 C 102.238281 250.011719 102.238281 250.011719 102.242188 250.007812 C 102.210938 250.046875 102.179688 250.085938 102.148438 250.125 C 102.070312 250.21875 101.992188 250.3125 101.910156 250.402344 C 101.738281 250.589844 101.5625 250.773438 101.375 250.945312 C 101.191406 251.117188 101.003906 251.273438 100.808594 251.433594 C 100.804688 251.4375 100.800781 251.4375 100.796875 251.441406 C 100.800781 251.4375 100.808594 251.433594 100.8125 251.433594 C 100.820312 251.425781 100.828125 251.417969 100.835938 251.414062 C 100.839844 251.410156 100.84375 251.40625 100.851562 251.402344 C 100.847656 251.402344 100.84375 251.40625 100.835938 251.414062 C 100.828125 251.417969 100.820312 251.425781 100.8125 251.433594 C 100.792969 251.445312 100.777344 251.457031 100.796875 251.441406 C 100.792969 251.445312 100.785156 251.449219 100.78125 251.453125 C 100.734375 251.488281 100.6875 251.523438 100.640625 251.558594 C 100.53125 251.636719 100.417969 251.714844 100.304688 251.789062 C 99.878906 252.070312 99.433594 252.316406 98.96875 252.527344 C 98.914062 252.550781 98.859375 252.574219 98.808594 252.597656 C 98.800781 252.601562 98.796875 252.601562 98.792969 252.605469 C 98.8125 252.597656 98.835938 252.589844 98.851562 252.578125 C 98.847656 252.582031 98.746094 252.625 98.792969 252.605469 C 98.777344 252.609375 98.757812 252.617188 98.742188 252.625 C 98.625 252.671875 98.503906 252.714844 98.382812 252.761719 C 98.136719 252.847656 97.890625 252.921875 97.640625 252.988281 C 97.386719 253.054688 97.128906 253.113281 96.867188 253.160156 C 96.792969 253.171875 96.722656 253.183594 96.648438 253.195312 C 96.617188 253.199219 96.585938 253.203125 96.554688 253.207031 C 96.464844 253.222656 96.597656 253.203125 96.605469 253.203125 C 96.476562 253.242188 96.300781 253.234375 96.167969 253.246094 C 95.628906 253.289062 95.089844 253.285156 94.550781 253.238281 C 94.4375 253.226562 94.292969 253.234375 94.183594 253.199219 C 94.1875 253.199219 94.320312 253.21875 94.234375 253.203125 " fill-opacity="1" fill-rule="nonzero"/><path fill="#ffffff" d="M 100.8125 251.433594 C 100.808594 251.433594 100.800781 251.4375 100.796875 251.441406 C 100.777344 251.457031 100.792969 251.445312 100.8125 251.433594 " fill-opacity="1" fill-rule="nonzero"/><path fill="#db232b" d="M 83.132812 255.558594 C 84.5625 255.253906 85.53125 254.117188 85.296875 253.023438 C 85.066406 251.925781 83.71875 251.28125 82.292969 251.585938 C 80.863281 251.886719 79.894531 253.023438 80.125 254.121094 C 80.359375 255.21875 81.703125 255.859375 83.132812 255.558594 " fill-opacity="1" fill-rule="nonzero"/><path fill="#db232b" d="M 111.40625 249.554688 C 112.835938 249.253906 113.804688 248.117188 113.574219 247.019531 C 113.339844 245.925781 111.996094 245.28125 110.566406 245.582031 C 109.136719 245.886719 108.167969 247.023438 108.398438 248.121094 C 108.632812 249.214844 109.980469 249.859375 111.40625 249.554688 " fill-opacity="1" fill-rule="nonzero"/><path fill="#db232b" d="M 101.199219 274.90625 C 120.902344 271.746094 116.90625 260.117188 116.90625 260.117188 C 116.90625 260.117188 108.777344 263.601562 99.199219 265.144531 C 89.765625 266.667969 79.6875 265.949219 79.6875 265.949219 C 79.6875 265.949219 80.335938 278.25 101.199219 274.90625 " fill-opacity="1" fill-rule="nonzero"/><path fill="#ffffff" d="M 88.703125 306.894531 C 88.703125 306.894531 88.703125 306.894531 88.699219 306.890625 C 88.589844 306.878906 88.847656 306.914062 88.703125 306.894531 " fill-opacity="1" fill-rule="nonzero"/><path fill="#ffffff" d="M 120.71875 304.753906 C 120.691406 304.761719 120.667969 304.773438 120.644531 304.78125 C 120.574219 304.8125 120.65625 304.78125 120.71875 304.753906 " fill-opacity="1" fill-rule="nonzero"/><path fill="#ffffff" d="M 79.671875 304.78125 C 79.648438 304.773438 79.625 304.761719 79.601562 304.753906 C 79.640625 304.769531 79.695312 304.792969 79.710938 304.800781 C 79.699219 304.792969 79.683594 304.789062 79.671875 304.78125 " fill-opacity="1" fill-rule="nonzero"/><path fill="#ffffff" d="M 78.628906 305.054688 C 78.453125 305.390625 78.511719 305.925781 78.902344 306.101562 C 79.210938 306.238281 79.53125 306.359375 79.851562 306.472656 C 80.632812 306.75 81.429688 306.984375 82.230469 307.195312 C 83.550781 307.539062 84.890625 307.816406 86.238281 308.046875 C 88.164062 308.378906 90.105469 308.617188 92.054688 308.78125 C 94.519531 308.984375 96.996094 309.074219 99.46875 309.066406 C 102.066406 309.058594 104.664062 308.964844 107.253906 308.765625 C 109.296875 308.613281 111.332031 308.390625 113.355469 308.082031 C 114.769531 307.867188 116.175781 307.605469 117.566406 307.28125 C 118.433594 307.074219 119.296875 306.847656 120.144531 306.570312 C 120.5 306.457031 120.851562 306.335938 121.191406 306.191406 C 121.265625 306.164062 121.339844 306.132812 121.414062 306.101562 C 121.777344 305.9375 121.890625 305.375 121.6875 305.054688 C 121.457031 304.699219 121.085938 304.617188 120.71875 304.753906 C 120.65625 304.78125 120.574219 304.8125 120.644531 304.78125 C 120.667969 304.773438 120.691406 304.761719 120.71875 304.753906 C 120.753906 304.738281 120.789062 304.722656 120.777344 304.726562 C 120.734375 304.742188 120.691406 304.761719 120.648438 304.777344 C 120.472656 304.847656 120.292969 304.914062 120.113281 304.976562 C 119.394531 305.222656 118.660156 305.433594 117.925781 305.621094 C 116.683594 305.9375 115.425781 306.195312 114.164062 306.414062 C 113.761719 306.484375 113.355469 306.546875 112.953125 306.609375 C 112.734375 306.644531 112.519531 306.675781 112.304688 306.703125 C 112.203125 306.71875 112.097656 306.734375 111.996094 306.746094 C 111.945312 306.753906 111.890625 306.765625 111.839844 306.769531 C 111.871094 306.765625 111.890625 306.765625 111.90625 306.761719 C 111.921875 306.761719 111.929688 306.761719 111.90625 306.761719 C 111.875 306.765625 111.820312 306.773438 111.777344 306.777344 C 110.792969 306.90625 109.808594 307.015625 108.820312 307.109375 C 106.382812 307.335938 103.933594 307.464844 101.488281 307.515625 C 98.914062 307.570312 96.339844 307.535156 93.769531 307.378906 C 92.679688 307.3125 91.59375 307.222656 90.507812 307.109375 C 90.019531 307.054688 89.527344 307 89.039062 306.9375 C 88.929688 306.921875 88.824219 306.910156 88.714844 306.894531 C 88.710938 306.894531 88.707031 306.894531 88.699219 306.890625 C 88.703125 306.894531 88.703125 306.894531 88.703125 306.894531 C 88.847656 306.914062 88.589844 306.878906 88.699219 306.890625 C 88.640625 306.882812 88.582031 306.875 88.519531 306.867188 C 88.296875 306.835938 88.074219 306.804688 87.851562 306.769531 C 86.378906 306.550781 84.914062 306.277344 83.464844 305.929688 C 82.535156 305.707031 81.613281 305.457031 80.707031 305.15625 C 80.445312 305.070312 80.1875 304.980469 79.929688 304.882812 C 79.847656 304.851562 79.765625 304.820312 79.683594 304.785156 C 79.65625 304.777344 79.625 304.761719 79.597656 304.753906 C 79.539062 304.730469 79.5625 304.738281 79.601562 304.753906 C 79.625 304.761719 79.648438 304.773438 79.671875 304.78125 C 79.683594 304.789062 79.699219 304.792969 79.710938 304.800781 C 79.71875 304.804688 79.722656 304.804688 79.71875 304.800781 C 79.714844 304.800781 79.714844 304.800781 79.710938 304.800781 C 79.695312 304.792969 79.640625 304.769531 79.601562 304.753906 C 79.25 304.625 78.820312 304.6875 78.628906 305.054688 " fill-opacity="1" fill-rule="nonzero"/><path fill="#ffffff" d="M 122.121094 308.257812 C 122.09375 308.265625 122.070312 308.277344 122.046875 308.289062 C 121.972656 308.320312 122.054688 308.285156 122.121094 308.257812 " fill-opacity="1" fill-rule="nonzero"/><path fill="#ffffff" d="M 87.925781 310.546875 C 87.824219 310.53125 88.058594 310.5625 87.925781 310.546875 " fill-opacity="1" fill-rule="nonzero"/><path fill="#ffffff" d="M 77.226562 308.5625 C 77.050781 308.894531 77.109375 309.429688 77.5 309.605469 C 77.828125 309.75 78.164062 309.878906 78.503906 310 C 79.335938 310.296875 80.183594 310.542969 81.039062 310.769531 C 82.449219 311.136719 83.878906 311.433594 85.316406 311.679688 C 87.367188 312.03125 89.4375 312.285156 91.511719 312.457031 C 94.140625 312.679688 96.78125 312.773438 99.421875 312.765625 C 102.195312 312.757812 104.964844 312.65625 107.730469 312.445312 C 109.90625 312.28125 112.074219 312.042969 114.230469 311.714844 C 115.738281 311.484375 117.238281 311.207031 118.722656 310.859375 C 119.648438 310.640625 120.570312 310.398438 121.476562 310.105469 C 121.851562 309.980469 122.226562 309.851562 122.589844 309.699219 C 122.664062 309.667969 122.742188 309.636719 122.8125 309.605469 C 123.179688 309.441406 123.292969 308.882812 123.085938 308.5625 C 122.859375 308.207031 122.488281 308.121094 122.121094 308.257812 C 122.054688 308.285156 121.972656 308.320312 122.046875 308.289062 C 122.070312 308.277344 122.09375 308.265625 122.121094 308.257812 C 122.15625 308.242188 122.183594 308.230469 122.175781 308.230469 C 122.128906 308.25 122.085938 308.269531 122.039062 308.289062 C 121.847656 308.363281 121.660156 308.433594 121.46875 308.5 C 120.699219 308.765625 119.917969 308.988281 119.132812 309.1875 C 117.808594 309.527344 116.464844 309.800781 115.117188 310.035156 C 114.6875 310.109375 114.257812 310.175781 113.824219 310.242188 C 113.59375 310.277344 113.363281 310.3125 113.132812 310.34375 C 113.023438 310.359375 112.914062 310.375 112.804688 310.390625 C 112.75 310.398438 112.695312 310.40625 112.636719 310.414062 C 112.8125 310.390625 112.632812 310.414062 112.558594 310.421875 C 111.507812 310.5625 110.457031 310.679688 109.402344 310.777344 C 106.800781 311.019531 104.1875 311.15625 101.574219 311.210938 C 98.832031 311.269531 96.082031 311.234375 93.339844 311.066406 C 92.179688 310.992188 91.019531 310.898438 89.863281 310.777344 C 89.339844 310.722656 88.816406 310.660156 88.292969 310.59375 C 88.175781 310.578125 88.0625 310.5625 87.945312 310.546875 C 87.9375 310.546875 87.933594 310.546875 87.925781 310.546875 C 88.058594 310.5625 87.824219 310.53125 87.925781 310.546875 C 87.925781 310.546875 87.921875 310.546875 87.921875 310.546875 C 87.855469 310.535156 87.789062 310.527344 87.726562 310.519531 C 87.488281 310.484375 87.25 310.453125 87.011719 310.414062 C 85.441406 310.179688 83.875 309.886719 82.332031 309.519531 C 81.339844 309.28125 80.355469 309.011719 79.386719 308.691406 C 79.109375 308.597656 78.832031 308.503906 78.554688 308.398438 C 78.46875 308.367188 78.382812 308.332031 78.292969 308.296875 C 78.265625 308.285156 78.234375 308.273438 78.203125 308.261719 C 78.144531 308.238281 78.164062 308.246094 78.199219 308.257812 C 78.222656 308.269531 78.246094 308.277344 78.269531 308.289062 C 78.28125 308.292969 78.296875 308.300781 78.3125 308.304688 C 78.320312 308.308594 78.320312 308.308594 78.320312 308.308594 C 78.316406 308.308594 78.316406 308.308594 78.3125 308.304688 C 78.292969 308.296875 78.234375 308.273438 78.199219 308.257812 C 77.847656 308.132812 77.417969 308.195312 77.226562 308.5625 " fill-opacity="1" fill-rule="nonzero"/><path fill="#ffffff" d="M 78.269531 308.289062 C 78.246094 308.277344 78.222656 308.269531 78.199219 308.257812 C 78.234375 308.273438 78.292969 308.296875 78.3125 308.304688 C 78.296875 308.300781 78.28125 308.292969 78.269531 308.289062 " fill-opacity="1" fill-rule="nonzero"/><path fill="#9a3c20" d="M 58.84375 275.902344 C 58.851562 275.921875 58.859375 275.9375 58.867188 275.953125 C 58.851562 275.917969 58.84375 275.902344 58.84375 275.902344 " fill-opacity="1" fill-rule="nonzero"/><path fill="#9a3c20" d="M 61.632812 286.097656 C 61.625 286.042969 61.628906 286.066406 61.632812 286.105469 C 61.636719 286.125 61.636719 286.128906 61.632812 286.097656 " fill-opacity="1" fill-rule="nonzero"/><path fill="#9a3c20" d="M 59.125 272.890625 C 58.949219 272.535156 58.414062 272.40625 58.082031 272.617188 C 57.71875 272.855469 57.617188 273.277344 57.808594 273.660156 C 58.019531 274.082031 58.222656 274.503906 58.414062 274.929688 C 58.503906 275.121094 58.589844 275.3125 58.671875 275.503906 C 58.71875 275.609375 58.765625 275.71875 58.8125 275.824219 C 58.824219 275.851562 58.835938 275.878906 58.84375 275.902344 C 58.84375 275.902344 58.851562 275.917969 58.867188 275.953125 C 58.859375 275.9375 58.851562 275.921875 58.84375 275.902344 C 58.847656 275.902344 58.890625 276.007812 58.898438 276.03125 C 59.253906 276.882812 59.578125 277.746094 59.875 278.621094 C 60.460938 280.351562 60.929688 282.125 61.273438 283.921875 C 61.371094 284.414062 61.457031 284.910156 61.53125 285.402344 C 61.550781 285.53125 61.570312 285.65625 61.589844 285.785156 C 61.597656 285.839844 61.605469 285.898438 61.613281 285.957031 C 61.613281 285.972656 61.628906 286.066406 61.632812 286.105469 C 61.628906 286.066406 61.625 286.042969 61.632812 286.097656 C 61.636719 286.128906 61.636719 286.125 61.632812 286.105469 C 61.636719 286.144531 61.644531 286.207031 61.644531 286.203125 C 61.65625 286.273438 61.664062 286.34375 61.671875 286.414062 C 61.6875 286.550781 61.707031 286.691406 61.722656 286.828125 C 61.765625 287.222656 62.039062 287.613281 62.484375 287.589844 C 62.859375 287.574219 63.292969 287.253906 63.246094 286.828125 C 62.820312 283.070312 61.902344 279.386719 60.476562 275.882812 C 60.0625 274.871094 59.613281 273.871094 59.125 272.890625 " fill-opacity="1" fill-rule="nonzero"/><path fill="#9a3c20" d="M 61.722656 275.011719 C 61.726562 275.027344 61.734375 275.042969 61.742188 275.0625 C 61.726562 275.023438 61.722656 275.011719 61.722656 275.011719 " fill-opacity="1" fill-rule="nonzero"/><path fill="#9a3c20" d="M 64.507812 285.203125 C 64.5 285.152344 64.503906 285.171875 64.507812 285.210938 C 64.511719 285.230469 64.511719 285.234375 64.507812 285.203125 " fill-opacity="1" fill-rule="nonzero"/><path fill="#9a3c20" d="M 62 272 C 61.824219 271.640625 61.289062 271.511719 60.957031 271.726562 C 60.59375 271.960938 60.496094 272.386719 60.683594 272.769531 C 60.894531 273.1875 61.097656 273.609375 61.289062 274.035156 C 61.378906 274.226562 61.464844 274.417969 61.546875 274.609375 C 61.59375 274.71875 61.640625 274.824219 61.6875 274.933594 C 61.699219 274.957031 61.710938 274.984375 61.722656 275.011719 C 61.722656 275.011719 61.726562 275.023438 61.742188 275.0625 C 61.734375 275.042969 61.726562 275.027344 61.722656 275.011719 C 61.722656 275.011719 61.765625 275.117188 61.773438 275.136719 C 62.128906 275.988281 62.453125 276.851562 62.75 277.726562 C 63.335938 279.460938 63.804688 281.234375 64.152344 283.03125 C 64.246094 283.523438 64.332031 284.015625 64.40625 284.511719 C 64.425781 284.636719 64.445312 284.765625 64.464844 284.890625 C 64.472656 284.949219 64.480469 285.007812 64.488281 285.0625 C 64.492188 285.078125 64.503906 285.171875 64.507812 285.210938 C 64.503906 285.171875 64.5 285.152344 64.507812 285.203125 C 64.511719 285.234375 64.511719 285.230469 64.507812 285.210938 C 64.515625 285.253906 64.523438 285.3125 64.523438 285.3125 C 64.53125 285.378906 64.539062 285.449219 64.546875 285.519531 C 64.566406 285.65625 64.582031 285.796875 64.597656 285.9375 C 64.640625 286.332031 64.914062 286.71875 65.359375 286.699219 C 65.734375 286.679688 66.167969 286.359375 66.121094 285.9375 C 65.695312 282.179688 64.777344 278.492188 63.351562 274.992188 C 62.9375 273.976562 62.488281 272.976562 62 272 " fill-opacity="1" fill-rule="nonzero"/><path fill="#db232b" d="M 57.933594 275.628906 C 57.941406 275.644531 57.949219 275.664062 57.957031 275.679688 C 57.9375 275.640625 57.933594 275.628906 57.933594 275.628906 " fill-opacity="1" fill-rule="nonzero"/><path fill="#db232b" d="M 60.71875 285.824219 C 60.714844 285.769531 60.714844 285.792969 60.722656 285.828125 C 60.722656 285.847656 60.722656 285.855469 60.71875 285.824219 " fill-opacity="1" fill-rule="nonzero"/><path fill="#db232b" d="M 58.214844 272.617188 C 58.035156 272.257812 57.5 272.128906 57.171875 272.34375 C 56.804688 272.578125 56.707031 273.003906 56.898438 273.386719 C 57.105469 273.804688 57.308594 274.226562 57.503906 274.652344 C 57.589844 274.84375 57.675781 275.035156 57.761719 275.230469 C 57.808594 275.335938 57.855469 275.445312 57.898438 275.550781 C 57.910156 275.578125 57.921875 275.601562 57.933594 275.628906 C 57.933594 275.628906 57.9375 275.640625 57.957031 275.679688 C 57.949219 275.664062 57.941406 275.644531 57.933594 275.628906 C 57.933594 275.628906 57.976562 275.734375 57.988281 275.753906 C 58.339844 276.605469 58.667969 277.472656 58.960938 278.34375 C 59.546875 280.078125 60.015625 281.851562 60.363281 283.648438 C 60.457031 284.140625 60.542969 284.632812 60.621094 285.128906 C 60.640625 285.253906 60.65625 285.382812 60.675781 285.507812 C 60.683594 285.566406 60.691406 285.625 60.699219 285.683594 C 60.703125 285.699219 60.714844 285.792969 60.722656 285.828125 C 60.714844 285.792969 60.714844 285.769531 60.71875 285.824219 C 60.722656 285.855469 60.722656 285.847656 60.722656 285.828125 C 60.726562 285.871094 60.734375 285.933594 60.734375 285.929688 C 60.742188 286 60.75 286.066406 60.761719 286.136719 C 60.777344 286.277344 60.792969 286.414062 60.808594 286.554688 C 60.855469 286.949219 61.128906 287.335938 61.570312 287.316406 C 61.945312 287.300781 62.382812 286.976562 62.332031 286.554688 C 61.90625 282.796875 60.992188 279.109375 59.5625 275.609375 C 59.148438 274.597656 58.703125 273.597656 58.214844 272.617188 " fill-opacity="1" fill-rule="nonzero"/><path fill="#db232b" d="M 63.597656 284.929688 C 63.589844 284.875 63.589844 284.898438 63.597656 284.9375 C 63.597656 284.957031 63.601562 284.960938 63.597656 284.929688 " fill-opacity="1" fill-rule="nonzero"/><path fill="#db232b" d="M 60.808594 274.734375 C 60.816406 274.753906 60.824219 274.769531 60.832031 274.785156 C 60.816406 274.75 60.808594 274.734375 60.808594 274.734375 " fill-opacity="1" fill-rule="nonzero"/><path fill="#db232b" d="M 61.089844 271.722656 C 60.910156 271.367188 60.375 271.238281 60.046875 271.449219 C 59.679688 271.6875 59.582031 272.113281 59.773438 272.492188 C 59.980469 272.914062 60.183594 273.335938 60.378906 273.761719 C 60.464844 273.953125 60.550781 274.144531 60.636719 274.335938 C 60.683594 274.441406 60.730469 274.550781 60.777344 274.65625 C 60.785156 274.683594 60.796875 274.710938 60.808594 274.734375 C 60.808594 274.734375 60.816406 274.75 60.832031 274.785156 C 60.824219 274.769531 60.816406 274.753906 60.808594 274.734375 C 60.808594 274.734375 60.855469 274.839844 60.863281 274.863281 C 61.214844 275.714844 61.542969 276.578125 61.835938 277.453125 C 62.421875 279.183594 62.890625 280.957031 63.238281 282.753906 C 63.332031 283.246094 63.417969 283.742188 63.496094 284.234375 C 63.515625 284.363281 63.535156 284.488281 63.550781 284.617188 C 63.558594 284.671875 63.566406 284.730469 63.578125 284.789062 C 63.578125 284.804688 63.589844 284.898438 63.597656 284.9375 C 63.589844 284.898438 63.589844 284.875 63.597656 284.929688 C 63.601562 284.960938 63.597656 284.957031 63.597656 284.9375 C 63.601562 284.980469 63.609375 285.039062 63.609375 285.035156 C 63.617188 285.105469 63.628906 285.175781 63.636719 285.246094 C 63.652344 285.382812 63.667969 285.523438 63.683594 285.660156 C 63.730469 286.054688 64.003906 286.445312 64.445312 286.425781 C 64.820312 286.40625 65.257812 286.085938 65.207031 285.660156 C 64.78125 281.90625 63.867188 278.21875 62.4375 274.714844 C 62.023438 273.703125 61.578125 272.703125 61.089844 271.722656 " fill-opacity="1" fill-rule="nonzero"/><path fill="#9a3c20" d="M 135.816406 256.3125 C 135.804688 256.296875 135.792969 256.28125 135.78125 256.269531 C 135.808594 256.304688 135.816406 256.316406 135.816406 256.3125 " fill-opacity="1" fill-rule="nonzero"/><path fill="#9a3c20" d="M 139.257812 262.433594 C 140.070312 263.214844 140.90625 263.96875 141.769531 264.691406 C 142.074219 264.945312 142.550781 265.011719 142.847656 264.691406 C 143.105469 264.40625 143.171875 263.882812 142.847656 263.609375 C 141.324219 262.335938 139.878906 260.964844 138.527344 259.511719 C 137.851562 258.78125 137.199219 258.027344 136.566406 257.257812 C 136.414062 257.070312 136.261719 256.878906 136.109375 256.6875 C 136.042969 256.601562 135.972656 256.515625 135.90625 256.425781 C 135.875 256.386719 135.84375 256.347656 135.816406 256.3125 C 135.816406 256.316406 135.808594 256.304688 135.78125 256.269531 C 135.792969 256.28125 135.804688 256.296875 135.816406 256.3125 C 135.808594 256.300781 135.710938 256.175781 135.699219 256.160156 C 135.402344 255.773438 135.113281 255.378906 134.832031 254.984375 C 134.171875 254.0625 133.550781 253.121094 132.960938 252.15625 C 132.75 251.816406 132.265625 251.65625 131.917969 251.882812 C 131.574219 252.101562 131.421875 252.5625 131.644531 252.925781 C 133.769531 256.398438 136.332031 259.609375 139.257812 262.433594 " fill-opacity="1" fill-rule="nonzero"/><path fill="#9a3c20" d="M 137.066406 264.519531 C 137.875 265.300781 138.714844 266.054688 139.574219 266.777344 C 139.882812 267.03125 140.359375 267.097656 140.652344 266.777344 C 140.914062 266.492188 140.980469 265.96875 140.652344 265.695312 C 139.128906 264.421875 137.6875 263.050781 136.335938 261.59375 C 135.660156 260.863281 135.003906 260.113281 134.375 259.34375 C 134.222656 259.152344 134.070312 258.964844 133.917969 258.773438 C 133.847656 258.6875 133.78125 258.597656 133.710938 258.511719 C 133.683594 258.472656 133.652344 258.433594 133.621094 258.394531 C 133.625 258.398438 133.617188 258.390625 133.589844 258.355469 C 133.601562 258.367188 133.613281 258.382812 133.621094 258.394531 C 133.613281 258.386719 133.519531 258.261719 133.507812 258.246094 C 133.210938 257.859375 132.921875 257.464844 132.636719 257.070312 C 131.980469 256.148438 131.359375 255.207031 130.765625 254.242188 C 130.558594 253.902344 130.074219 253.742188 129.722656 253.96875 C 129.382812 254.1875 129.226562 254.648438 129.449219 255.011719 C 131.578125 258.480469 134.140625 261.691406 137.066406 264.519531 " fill-opacity="1" fill-rule="nonzero"/><path fill="#9a3c20" d="M 133.621094 258.394531 C 133.613281 258.382812 133.601562 258.367188 133.589844 258.355469 C 133.617188 258.390625 133.625 258.398438 133.621094 258.394531 " fill-opacity="1" fill-rule="nonzero"/><path fill="#db232b" d="M 136.425781 255.394531 C 136.414062 255.382812 136.402344 255.367188 136.390625 255.355469 C 136.417969 255.386719 136.425781 255.398438 136.425781 255.394531 " fill-opacity="1" fill-rule="nonzero"/><path fill="#db232b" d="M 139.871094 261.519531 C 140.679688 262.300781 141.515625 263.054688 142.378906 263.773438 C 142.683594 264.03125 143.160156 264.097656 143.457031 263.773438 C 143.714844 263.492188 143.78125 262.96875 143.457031 262.695312 C 141.933594 261.421875 140.488281 260.050781 139.136719 258.59375 C 138.460938 257.863281 137.808594 257.113281 137.175781 256.34375 C 137.023438 256.152344 136.871094 255.964844 136.71875 255.773438 C 136.652344 255.683594 136.582031 255.597656 136.515625 255.511719 C 136.484375 255.472656 136.453125 255.433594 136.425781 255.394531 C 136.425781 255.398438 136.417969 255.386719 136.390625 255.355469 C 136.402344 255.367188 136.414062 255.382812 136.425781 255.394531 C 136.417969 255.386719 136.320312 255.261719 136.308594 255.246094 C 136.011719 254.855469 135.722656 254.464844 135.441406 254.070312 C 134.785156 253.148438 134.160156 252.207031 133.570312 251.242188 C 133.359375 250.902344 132.878906 250.742188 132.527344 250.96875 C 132.183594 251.1875 132.03125 251.648438 132.253906 252.011719 C 134.378906 255.480469 136.941406 258.691406 139.871094 261.519531 " fill-opacity="1" fill-rule="nonzero"/><path fill="#db232b" d="M 134.230469 257.480469 C 134.222656 257.464844 134.210938 257.453125 134.199219 257.4375 C 134.226562 257.472656 134.234375 257.484375 134.230469 257.480469 " fill-opacity="1" fill-rule="nonzero"/><path fill="#db232b" d="M 137.675781 263.605469 C 138.484375 264.386719 139.324219 265.136719 140.1875 265.859375 C 140.492188 266.117188 140.96875 266.183594 141.261719 265.859375 C 141.523438 265.578125 141.589844 265.054688 141.261719 264.78125 C 139.738281 263.507812 138.296875 262.136719 136.945312 260.679688 C 136.269531 259.949219 135.613281 259.199219 134.984375 258.425781 C 134.832031 258.238281 134.679688 258.050781 134.527344 257.859375 C 134.457031 257.769531 134.390625 257.683594 134.320312 257.597656 C 134.292969 257.558594 134.261719 257.519531 134.230469 257.480469 C 134.234375 257.484375 134.226562 257.472656 134.199219 257.4375 C 134.210938 257.453125 134.222656 257.464844 134.230469 257.480469 C 134.226562 257.472656 134.128906 257.347656 134.117188 257.332031 C 133.820312 256.941406 133.53125 256.550781 133.25 256.152344 C 132.589844 255.234375 131.96875 254.289062 131.375 253.324219 C 131.167969 252.984375 130.683594 252.824219 130.335938 253.050781 C 129.992188 253.273438 129.835938 253.734375 130.0625 254.097656 C 132.1875 257.566406 134.75 260.777344 137.675781 263.605469 " fill-opacity="1" fill-rule="nonzero"/><path fill="#9a3c20" d="M 69.851562 331.863281 C 69.847656 331.859375 69.84375 331.855469 69.839844 331.855469 C 69.84375 331.855469 69.84375 331.855469 69.84375 331.859375 C 69.8125 331.832031 69.777344 331.804688 69.742188 331.777344 C 69.433594 331.53125 68.964844 331.449219 68.664062 331.777344 C 68.410156 332.054688 68.332031 332.589844 68.664062 332.855469 C 70.75 334.519531 73.140625 335.757812 75.574219 336.828125 C 78.105469 337.9375 80.71875 338.882812 83.386719 339.601562 C 84.53125 339.910156 85.695312 340.183594 86.867188 340.347656 C 87.082031 340.375 87.261719 340.382812 87.457031 340.269531 C 87.613281 340.175781 87.765625 339.996094 87.804688 339.8125 C 87.886719 339.453125 87.695312 338.933594 87.273438 338.875 C 85.003906 338.558594 82.769531 337.890625 80.605469 337.15625 C 79.953125 336.933594 79.304688 336.699219 78.660156 336.457031 C 78.335938 336.332031 78.007812 336.203125 77.683594 336.074219 C 77.535156 336.011719 77.386719 335.953125 77.234375 335.890625 C 77.148438 335.851562 77.058594 335.816406 76.972656 335.78125 C 76.9375 335.765625 76.902344 335.753906 76.867188 335.734375 C 77.039062 335.828125 76.871094 335.738281 76.839844 335.722656 C 75.570312 335.183594 74.324219 334.59375 73.113281 333.9375 C 72.484375 333.59375 71.867188 333.234375 71.265625 332.847656 C 70.976562 332.664062 70.6875 332.472656 70.410156 332.273438 C 70.28125 332.183594 70.152344 332.089844 70.027344 331.996094 C 69.984375 331.964844 69.945312 331.933594 69.902344 331.898438 C 69.890625 331.894531 69.878906 331.882812 69.867188 331.875 C 69.863281 331.871094 69.855469 331.867188 69.851562 331.863281 " fill-opacity="1" fill-rule="nonzero"/><path fill="#9a3c20" d="M 69.84375 331.859375 C 69.847656 331.859375 69.851562 331.859375 69.851562 331.863281 C 69.871094 331.875 69.886719 331.886719 69.902344 331.898438 C 69.941406 331.925781 69.964844 331.933594 69.84375 331.859375 " fill-opacity="1" fill-rule="nonzero"/><path fill="#9a3c20" d="M 68.546875 334.742188 C 68.546875 334.746094 68.550781 334.746094 68.550781 334.75 C 68.570312 334.761719 68.585938 334.773438 68.601562 334.785156 C 68.640625 334.808594 68.667969 334.820312 68.546875 334.742188 " fill-opacity="1" fill-rule="nonzero"/><path fill="#9a3c20" d="M 68.550781 334.75 C 68.546875 334.746094 68.542969 334.742188 68.539062 334.742188 C 68.542969 334.742188 68.542969 334.742188 68.546875 334.742188 C 68.511719 334.71875 68.476562 334.691406 68.441406 334.664062 C 68.132812 334.414062 67.664062 334.335938 67.367188 334.664062 C 67.113281 334.9375 67.03125 335.476562 67.367188 335.742188 C 69.449219 337.402344 71.84375 338.644531 74.273438 339.710938 C 76.804688 340.824219 79.417969 341.769531 82.085938 342.488281 C 83.234375 342.796875 84.394531 343.070312 85.570312 343.230469 C 85.78125 343.261719 85.964844 343.269531 86.15625 343.15625 C 86.316406 343.0625 86.464844 342.882812 86.507812 342.699219 C 86.589844 342.339844 86.398438 341.820312 85.972656 341.761719 C 83.703125 341.445312 81.46875 340.777344 79.304688 340.039062 C 78.652344 339.820312 78.003906 339.585938 77.363281 339.339844 C 77.035156 339.214844 76.707031 339.089844 76.382812 338.957031 C 76.234375 338.898438 76.085938 338.835938 75.9375 338.773438 C 75.847656 338.738281 75.761719 338.703125 75.671875 338.664062 C 75.636719 338.652344 75.601562 338.640625 75.566406 338.621094 C 75.738281 338.710938 75.574219 338.625 75.539062 338.609375 C 74.273438 338.070312 73.023438 337.480469 71.8125 336.820312 C 71.183594 336.480469 70.566406 336.121094 69.964844 335.734375 C 69.675781 335.550781 69.390625 335.359375 69.109375 335.160156 C 68.980469 335.066406 68.851562 334.976562 68.726562 334.882812 C 68.683594 334.851562 68.644531 334.816406 68.601562 334.785156 C 68.589844 334.777344 68.578125 334.769531 68.566406 334.761719 C 68.5625 334.757812 68.558594 334.753906 68.550781 334.75 " fill-opacity="1" fill-rule="nonzero"/><path fill="#9a3c20" d="M 131.109375 331.882812 C 131.101562 331.886719 131.097656 331.894531 131.089844 331.898438 C 131.082031 331.90625 131.074219 331.910156 131.066406 331.917969 C 131.074219 331.910156 131.210938 331.804688 131.109375 331.882812 " fill-opacity="1" fill-rule="nonzero"/><path fill="#9a3c20" d="M 124.089844 335.75 C 124.074219 335.757812 124.058594 335.765625 124.042969 335.769531 C 124.167969 335.734375 124.132812 335.738281 124.089844 335.75 " fill-opacity="1" fill-rule="nonzero"/><path fill="#9a3c20" d="M 114.117188 340.347656 C 116.417969 340.027344 118.675781 339.347656 120.867188 338.597656 C 123.550781 337.683594 126.199219 336.585938 128.691406 335.226562 C 129.964844 334.535156 131.1875 333.761719 132.320312 332.855469 C 132.636719 332.605469 132.601562 332.035156 132.320312 331.777344 C 131.988281 331.472656 131.578125 331.511719 131.242188 331.777344 C 131.191406 331.816406 131.140625 331.855469 131.089844 331.898438 C 131.097656 331.894531 131.101562 331.886719 131.109375 331.882812 C 131.210938 331.804688 131.074219 331.910156 131.066406 331.917969 C 131.074219 331.910156 131.082031 331.90625 131.089844 331.898438 C 131.070312 331.914062 131.054688 331.925781 131.035156 331.9375 C 130.910156 332.035156 130.785156 332.128906 130.65625 332.21875 C 130.417969 332.386719 130.175781 332.554688 129.933594 332.714844 C 129.398438 333.0625 128.851562 333.390625 128.296875 333.703125 C 127.105469 334.375 125.871094 334.972656 124.617188 335.519531 C 124.460938 335.589844 124.304688 335.65625 124.148438 335.722656 C 124.128906 335.730469 124.109375 335.742188 124.089844 335.75 C 124.132812 335.738281 124.167969 335.734375 124.042969 335.769531 C 124.058594 335.765625 124.074219 335.757812 124.089844 335.75 C 124.082031 335.753906 124.074219 335.753906 124.066406 335.757812 C 123.972656 335.796875 123.875 335.839844 123.777344 335.878906 C 123.453125 336.011719 123.128906 336.144531 122.800781 336.269531 C 122.15625 336.523438 121.507812 336.765625 120.851562 336.992188 C 119.632812 337.421875 118.398438 337.808594 117.148438 338.144531 C 116.015625 338.445312 114.871094 338.714844 113.714844 338.875 C 113.316406 338.929688 113.066406 339.457031 113.179688 339.8125 C 113.320312 340.25 113.695312 340.40625 114.117188 340.347656 " fill-opacity="1" fill-rule="nonzero"/><path fill="#9a3c20" d="M 132.410156 334.769531 C 132.402344 334.773438 132.394531 334.777344 132.390625 334.785156 C 132.382812 334.789062 132.375 334.796875 132.367188 334.804688 C 132.375 334.792969 132.511719 334.691406 132.410156 334.769531 " fill-opacity="1" fill-rule="nonzero"/><path fill="#9a3c20" d="M 115.417969 343.230469 C 117.714844 342.914062 119.976562 342.234375 122.167969 341.484375 C 124.851562 340.566406 127.5 339.472656 129.992188 338.113281 C 131.261719 337.417969 132.488281 336.644531 133.621094 335.742188 C 133.933594 335.492188 133.902344 334.921875 133.621094 334.664062 C 133.289062 334.359375 132.878906 334.398438 132.542969 334.664062 C 132.492188 334.703125 132.441406 334.742188 132.390625 334.785156 C 132.394531 334.777344 132.402344 334.773438 132.410156 334.769531 C 132.511719 334.691406 132.375 334.792969 132.367188 334.804688 C 132.375 334.796875 132.382812 334.789062 132.390625 334.785156 C 132.371094 334.796875 132.355469 334.8125 132.335938 334.824219 C 132.210938 334.917969 132.085938 335.011719 131.957031 335.105469 C 131.71875 335.273438 131.476562 335.441406 131.230469 335.601562 C 130.699219 335.949219 130.152344 336.277344 129.597656 336.589844 C 128.402344 337.257812 127.171875 337.855469 125.917969 338.40625 C 125.761719 338.476562 125.605469 338.542969 125.449219 338.609375 C 125.429688 338.617188 125.410156 338.625 125.390625 338.636719 C 125.429688 338.625 125.46875 338.621094 125.34375 338.65625 C 125.359375 338.652344 125.375 338.644531 125.390625 338.636719 C 125.382812 338.640625 125.375 338.640625 125.367188 338.644531 C 125.269531 338.683594 125.175781 338.726562 125.078125 338.765625 C 124.753906 338.898438 124.429688 339.03125 124.101562 339.15625 C 123.457031 339.410156 122.804688 339.648438 122.152344 339.878906 C 120.933594 340.304688 119.695312 340.695312 118.449219 341.027344 C 117.316406 341.332031 116.171875 341.597656 115.011719 341.761719 C 114.617188 341.816406 114.367188 342.34375 114.480469 342.699219 C 114.621094 343.136719 114.992188 343.292969 115.417969 343.230469 " fill-opacity="1" fill-rule="nonzero"/><path fill="#9a3c20" d="M 125.390625 338.636719 C 125.375 338.644531 125.359375 338.652344 125.34375 338.65625 C 125.46875 338.621094 125.429688 338.625 125.390625 338.636719 " fill-opacity="1" fill-rule="nonzero"/><path fill="#db232b" d="M 69.851562 330.796875 C 69.847656 330.792969 69.84375 330.789062 69.839844 330.785156 C 69.84375 330.789062 69.84375 330.789062 69.84375 330.789062 C 69.8125 330.765625 69.777344 330.738281 69.742188 330.710938 C 69.433594 330.460938 68.964844 330.382812 68.664062 330.710938 C 68.410156 330.984375 68.332031 331.523438 68.664062 331.789062 C 70.75 333.449219 73.140625 334.691406 75.574219 335.757812 C 78.105469 336.871094 80.71875 337.816406 83.386719 338.535156 C 84.53125 338.84375 85.695312 339.113281 86.867188 339.277344 C 87.082031 339.308594 87.261719 339.316406 87.457031 339.203125 C 87.613281 339.109375 87.765625 338.925781 87.804688 338.746094 C 87.886719 338.386719 87.695312 337.867188 87.273438 337.808594 C 85.003906 337.492188 82.769531 336.824219 80.605469 336.085938 C 79.953125 335.867188 79.304688 335.632812 78.660156 335.386719 C 78.335938 335.261719 78.007812 335.132812 77.683594 335.003906 C 77.535156 334.945312 77.386719 334.882812 77.234375 334.820312 C 77.148438 334.785156 77.058594 334.75 76.972656 334.714844 C 76.9375 334.699219 76.902344 334.683594 76.867188 334.667969 C 77.039062 334.757812 76.871094 334.671875 76.839844 334.65625 C 75.570312 334.117188 74.324219 333.527344 73.113281 332.867188 C 72.484375 332.527344 71.867188 332.167969 71.265625 331.78125 C 70.976562 331.597656 70.6875 331.402344 70.410156 331.207031 C 70.28125 331.113281 70.152344 331.019531 70.027344 330.925781 C 69.984375 330.898438 69.945312 330.863281 69.902344 330.832031 C 69.890625 330.824219 69.878906 330.816406 69.867188 330.808594 C 69.863281 330.804688 69.855469 330.800781 69.851562 330.796875 " fill-opacity="1" fill-rule="nonzero"/><path fill="#db232b" d="M 69.84375 330.789062 C 69.847656 330.792969 69.851562 330.792969 69.851562 330.796875 C 69.871094 330.808594 69.886719 330.820312 69.902344 330.832031 C 69.941406 330.855469 69.964844 330.867188 69.84375 330.789062 " fill-opacity="1" fill-rule="nonzero"/><path fill="#db232b" d="M 68.546875 333.675781 C 68.546875 333.675781 68.550781 333.679688 68.550781 333.679688 C 68.570312 333.691406 68.585938 333.707031 68.601562 333.71875 C 68.640625 333.742188 68.664062 333.753906 68.546875 333.675781 " fill-opacity="1" fill-rule="nonzero"/><path fill="#db232b" d="M 68.550781 333.679688 C 68.546875 333.679688 68.542969 333.675781 68.539062 333.671875 C 68.542969 333.671875 68.542969 333.675781 68.546875 333.675781 C 68.511719 333.648438 68.476562 333.621094 68.441406 333.59375 C 68.132812 333.347656 67.664062 333.269531 67.367188 333.59375 C 67.113281 333.871094 67.03125 334.410156 67.367188 334.671875 C 69.449219 336.335938 71.84375 337.578125 74.273438 338.644531 C 76.804688 339.753906 79.417969 340.699219 82.085938 341.421875 C 83.234375 341.726562 84.394531 342 85.570312 342.164062 C 85.78125 342.195312 85.964844 342.199219 86.15625 342.085938 C 86.316406 341.996094 86.464844 341.8125 86.507812 341.632812 C 86.589844 341.273438 86.398438 340.75 85.972656 340.695312 C 83.703125 340.375 81.46875 339.710938 79.304688 338.972656 C 78.652344 338.75 78.003906 338.515625 77.363281 338.273438 C 77.035156 338.148438 76.707031 338.019531 76.382812 337.890625 C 76.234375 337.828125 76.085938 337.769531 75.9375 337.707031 C 75.847656 337.671875 75.761719 337.632812 75.671875 337.597656 C 75.636719 337.582031 75.601562 337.570312 75.566406 337.554688 C 75.738281 337.644531 75.574219 337.554688 75.539062 337.542969 C 74.273438 337 73.023438 336.410156 71.8125 335.753906 C 71.183594 335.414062 70.566406 335.050781 69.964844 334.667969 C 69.675781 334.480469 69.390625 334.289062 69.109375 334.089844 C 68.980469 334 68.851562 333.90625 68.726562 333.8125 C 68.683594 333.78125 68.644531 333.75 68.601562 333.71875 C 68.589844 333.710938 68.578125 333.703125 68.566406 333.695312 C 68.5625 333.691406 68.558594 333.6875 68.550781 333.679688 " fill-opacity="1" fill-rule="nonzero"/><path fill="#db232b" d="M 131.109375 330.816406 C 131.101562 330.820312 131.097656 330.824219 131.089844 330.832031 C 131.082031 330.839844 131.074219 330.84375 131.066406 330.851562 C 131.074219 330.84375 131.210938 330.738281 131.109375 330.816406 " fill-opacity="1" fill-rule="nonzero"/><path fill="#db232b" d="M 114.117188 339.277344 C 116.417969 338.957031 118.675781 338.28125 120.867188 337.53125 C 123.550781 336.613281 126.199219 335.519531 128.691406 334.160156 C 129.964844 333.464844 131.1875 332.691406 132.320312 331.789062 C 132.636719 331.539062 132.601562 330.96875 132.320312 330.710938 C 131.988281 330.402344 131.578125 330.441406 131.242188 330.710938 C 131.191406 330.75 131.140625 330.789062 131.089844 330.832031 C 131.097656 330.824219 131.101562 330.820312 131.109375 330.816406 C 131.210938 330.738281 131.074219 330.84375 131.066406 330.851562 C 131.074219 330.84375 131.082031 330.839844 131.089844 330.832031 C 131.070312 330.84375 131.054688 330.859375 131.035156 330.871094 C 130.910156 330.964844 130.785156 331.058594 130.65625 331.148438 C 130.417969 331.320312 130.175781 331.484375 129.933594 331.644531 C 129.398438 331.996094 128.851562 332.324219 128.296875 332.636719 C 127.105469 333.304688 125.871094 333.902344 124.617188 334.453125 C 124.460938 334.519531 124.304688 334.589844 124.148438 334.65625 C 124.128906 334.664062 124.109375 334.671875 124.089844 334.683594 C 124.132812 334.667969 124.167969 334.667969 124.042969 334.699219 C 124.058594 334.695312 124.074219 334.691406 124.089844 334.683594 C 124.082031 334.683594 124.074219 334.6875 124.066406 334.691406 C 123.972656 334.730469 123.875 334.769531 123.777344 334.8125 C 123.453125 334.945312 123.128906 335.074219 122.800781 335.203125 C 122.15625 335.457031 121.507812 335.695312 120.851562 335.925781 C 119.632812 336.351562 118.398438 336.738281 117.148438 337.074219 C 116.015625 337.378906 114.871094 337.644531 113.714844 337.808594 C 113.316406 337.863281 113.066406 338.390625 113.179688 338.746094 C 113.320312 339.179688 113.695312 339.339844 114.117188 339.277344 " fill-opacity="1" fill-rule="nonzero"/><path fill="#db232b" d="M 124.089844 334.683594 C 124.074219 334.691406 124.058594 334.695312 124.042969 334.699219 C 124.167969 334.667969 124.132812 334.667969 124.089844 334.683594 " fill-opacity="1" fill-rule="nonzero"/><path fill="#db232b" d="M 132.410156 333.699219 C 132.402344 333.707031 132.394531 333.710938 132.390625 333.714844 C 132.382812 333.722656 132.375 333.730469 132.367188 333.734375 C 132.375 333.726562 132.511719 333.625 132.410156 333.699219 " fill-opacity="1" fill-rule="nonzero"/><path fill="#db232b" d="M 125.390625 337.566406 C 125.375 337.574219 125.359375 337.582031 125.34375 337.585938 C 125.46875 337.554688 125.429688 337.554688 125.390625 337.566406 " fill-opacity="1" fill-rule="nonzero"/><path fill="#db232b" d="M 115.417969 342.164062 C 117.714844 341.84375 119.976562 341.167969 122.167969 340.417969 C 124.851562 339.5 127.5 338.40625 129.992188 337.046875 C 131.261719 336.351562 132.488281 335.578125 133.621094 334.671875 C 133.933594 334.425781 133.902344 333.851562 133.621094 333.59375 C 133.289062 333.289062 132.878906 333.328125 132.542969 333.59375 C 132.492188 333.636719 132.441406 333.675781 132.390625 333.714844 C 132.394531 333.710938 132.402344 333.707031 132.410156 333.699219 C 132.511719 333.625 132.375 333.726562 132.367188 333.734375 C 132.375 333.730469 132.382812 333.722656 132.390625 333.714844 C 132.371094 333.730469 132.355469 333.742188 132.335938 333.757812 C 132.210938 333.851562 132.085938 333.945312 131.957031 334.035156 C 131.71875 334.207031 131.476562 334.371094 131.230469 334.53125 C 130.699219 334.878906 130.152344 335.207031 129.597656 335.519531 C 128.402344 336.191406 127.171875 336.789062 125.917969 337.339844 C 125.761719 337.40625 125.605469 337.476562 125.449219 337.542969 C 125.429688 337.550781 125.410156 337.558594 125.390625 337.566406 C 125.429688 337.554688 125.46875 337.554688 125.34375 337.585938 C 125.359375 337.582031 125.375 337.574219 125.390625 337.566406 C 125.382812 337.570312 125.375 337.574219 125.367188 337.574219 C 125.269531 337.617188 125.175781 337.65625 125.078125 337.695312 C 124.753906 337.832031 124.429688 337.960938 124.101562 338.089844 C 123.457031 338.34375 122.804688 338.582031 122.152344 338.8125 C 120.933594 339.238281 119.695312 339.625 118.449219 339.960938 C 117.316406 340.265625 116.171875 340.53125 115.011719 340.695312 C 114.617188 340.75 114.367188 341.273438 114.480469 341.632812 C 114.621094 342.066406 114.992188 342.222656 115.417969 342.164062 " fill-opacity="1" fill-rule="nonzero"/></svg>