<svg xmlns="http://www.w3.org/2000/svg" xmlns:xlink="http://www.w3.org/1999/xlink" width="500" zoomAndPan="magnify" viewBox="0 0 375 374.999991" height="500" preserveAspectRatio="xMidYMid meet" version="1.0"><defs><clipPath id="322954806c"><path d="M 16.953125 33 L 358.203125 33 L 358.203125 342.265625 L 16.953125 342.265625 Z M 16.953125 33 " clip-rule="nonzero"/></clipPath><clipPath id="91fa043e5f"><path d="M 56 38 L 318.972656 38 L 318.972656 253 L 56 253 Z M 56 38 " clip-rule="nonzero"/></clipPath><clipPath id="9a5d72b0f0"><path d="M 56 38 L 318.972656 38 L 318.972656 228 L 56 228 Z M 56 38 " clip-rule="nonzero"/></clipPath></defs><g clip-path="url(#322954806c)"><path fill="#546e5a" d="M 156.085938 214.960938 C 156.085938 214.960938 106.71875 214.605469 90.808594 183.78125 C 90.808594 183.78125 111.015625 210.070312 160.679688 207.617188 L 171.179688 272.894531 Z M 155.132812 194.296875 C 141 190.609375 137.914062 180.179688 137.792969 172.277344 C 151.785156 174.773438 167.25 176.300781 183.570312 176.640625 C 181.363281 184.683594 173.898438 199.1875 155.132812 194.296875 Z M 187.90625 143.132812 C 157.015625 143.132812 130.410156 136.324219 118.257812 126.519531 C 132.003906 134.207031 155.46875 139.269531 182.113281 139.269531 C 224.472656 139.269531 258.808594 126.484375 258.808594 110.710938 C 258.808594 106.441406 256.273438 102.390625 251.765625 98.757812 C 259.871094 103.289062 264.597656 108.722656 264.597656 114.570312 C 264.597656 130.34375 230.265625 143.132812 187.90625 143.132812 Z M 191.425781 176.640625 C 207.746094 176.300781 223.210938 174.773438 237.203125 172.277344 C 237.074219 180.179688 233.996094 190.609375 219.863281 194.296875 C 201.101562 199.1875 193.632812 184.683594 191.425781 176.640625 Z M 51.644531 342.253906 C 93.324219 333.976562 145.898438 331.054688 171.71875 330.070312 L 163.15625 287.585938 L 197.425781 284.589844 L 214.316406 207.617188 C 263.976562 210.070312 284.183594 183.78125 284.183594 183.78125 C 268.277344 214.605469 218.910156 214.960938 218.910156 214.960938 L 201.777344 290.574219 L 171.179688 292.476562 L 178.527344 329.835938 C 184.199219 329.65625 187.496094 329.605469 187.496094 329.605469 C 187.496094 329.605469 265.824219 330.828125 323.355469 342.253906 C 323.355469 342.253906 311.519531 320.628906 274.804688 294.109375 C 274.804688 294.109375 318.859375 304.714844 358.03125 318.996094 C 358.03125 318.996094 318.046875 275.75 259.707031 252.902344 L 251.957031 276.160156 C 251.957031 276.160156 253.5625 238.835938 272.765625 223.125 C 298.195312 202.316406 287.667969 177.246094 287.667969 177.246094 L 255.21875 178.792969 C 255.21875 178.792969 258.054688 172.808594 260.101562 164.011719 C 284.90625 156.078125 300.640625 144.324219 300.640625 131.191406 C 300.640625 116.5625 281.109375 103.636719 251.242188 95.8125 C 242.328125 65.5 229.777344 32.792969 220.953125 33.28125 C 206.265625 34.097656 205.175781 48.511719 187.496094 48.511719 C 169.816406 48.511719 168.730469 34.097656 154.042969 33.28125 C 145.371094 32.800781 133.097656 64.367188 124.21875 94.226562 C 90.730469 101.8125 68.371094 115.53125 68.371094 131.191406 C 68.371094 145.429688 86.851562 158.058594 115.359375 165.9375 C 117.347656 173.667969 119.777344 178.792969 119.777344 178.792969 L 87.332031 177.246094 C 87.332031 177.246094 76.800781 202.316406 102.230469 223.125 C 121.4375 238.835938 123.039062 276.160156 123.039062 276.160156 L 115.285156 252.902344 C 56.945312 275.75 16.964844 318.996094 16.964844 318.996094 C 56.128906 304.714844 100.191406 294.109375 100.191406 294.109375 C 63.476562 320.628906 51.644531 342.253906 51.644531 342.253906 " fill-opacity="1" fill-rule="nonzero"/></g><g clip-path="url(#91fa043e5f)"><path fill="#fea36c" d="M 191.941406 201.882812 C 200.101562 201.960938 206.402344 203.058594 211.925781 206.832031 C 219.265625 211.847656 222.40625 218.675781 221.960938 227.761719 C 221.382812 239.628906 210.664062 250.074219 198.714844 251.972656 C 192.277344 252.996094 185.863281 253.527344 179.632812 251.1875 C 169.511719 247.382812 164.0625 239.722656 162.179688 229.292969 C 161.105469 223.355469 162.324219 217.820312 165.773438 212.953125 C 168.902344 208.535156 173.667969 206.277344 178.625 204.507812 C 183.441406 202.789062 188.390625 201.726562 191.941406 201.882812 Z M 219.300781 225.882812 C 219.066406 223.992188 218.730469 222.011719 217.945312 220.144531 C 214.625 212.265625 208.234375 208.542969 200.199219 207.0625 C 199.679688 206.964844 199.148438 207.09375 199.035156 207.597656 C 198.894531 208.230469 199.519531 208.226562 199.953125 208.414062 C 208.265625 211.976562 213.96875 218.128906 217.621094 226.308594 C 217.863281 226.84375 217.839844 227.808594 218.789062 227.554688 C 219.554688 227.347656 219.171875 226.546875 219.300781 225.882812 Z M 76.207031 102.457031 C 76.160156 105.429688 76.195312 108.394531 76.914062 111.300781 C 77.054688 111.875 77.230469 112.445312 77.449219 112.996094 C 78 114.363281 78.769531 115.796875 80.355469 115.757812 C 81.90625 115.722656 82.726562 114.296875 83.296875 112.957031 C 84.308594 110.582031 84.207031 108.046875 83.976562 105.578125 C 83.515625 100.625 83.0625 95.671875 82.542969 90.730469 C 81.652344 82.265625 81.082031 73.777344 81.644531 65.308594 C 82.160156 57.597656 83.789062 50.085938 88.566406 43.605469 C 91.800781 39.214844 98.703125 37.523438 103.460938 39.046875 C 107.746094 40.417969 109.964844 44.5625 108.839844 49.121094 C 107.914062 52.871094 106.289062 56.386719 105.042969 60.027344 C 102.050781 68.761719 99.921875 77.652344 100.097656 86.96875 C 100.125 88.480469 100.433594 89.917969 101.085938 91.261719 C 101.4375 91.988281 101.773438 93 102.703125 92.972656 C 103.660156 92.945312 103.882812 91.910156 104.121094 91.140625 C 104.835938 88.824219 105.515625 86.492188 106.164062 84.15625 C 107.234375 80.289062 108.769531 76.652344 111.371094 73.542969 C 113.914062 70.507812 117.09375 68.925781 121.09375 69.519531 C 125.878906 70.226562 127.699219 74.519531 127.054688 79.636719 C 126.472656 84.277344 123.914062 88.167969 121.75 92.179688 C 119.300781 96.71875 116.304688 100.964844 114.28125 105.734375 C 112.667969 109.53125 111.679688 113.460938 112.214844 117.652344 C 112.3125 118.4375 112.507812 119.167969 112.84375 119.863281 C 113.90625 122.070312 115.308594 122.363281 117.191406 120.804688 C 119.292969 119.070312 121.160156 117.039062 123.679688 115.84375 C 124.882812 115.277344 126.128906 114.875 127.4375 115.015625 C 130.640625 115.359375 132.394531 117.988281 131.757812 121.320312 C 131.128906 124.613281 129.851562 127.683594 128.335938 130.632812 C 123.964844 139.125 126.953125 144.585938 133.347656 149.886719 C 137.480469 153.3125 142.347656 155.34375 147.269531 157.277344 C 152.296875 159.25 152.3125 159.234375 149.484375 163.792969 C 148.796875 164.902344 147.945312 165.921875 147.351562 167.074219 C 146.320312 169.078125 144.6875 169.308594 142.710938 169.046875 C 135.546875 168.097656 128.515625 166.5625 121.585938 164.492188 C 112.285156 161.714844 102.890625 159.210938 93.898438 155.511719 C 85.558594 152.078125 77.78125 147.730469 71.339844 141.234375 C 63.695312 133.53125 59.078125 124.347656 57.28125 113.664062 C 56.542969 109.265625 55.882812 104.863281 56.253906 100.40625 C 56.695312 95.109375 57.933594 90.101562 62.261719 86.4375 C 63.996094 84.96875 66.023438 84.164062 68.210938 83.824219 C 71.363281 83.328125 74.257812 85.902344 75.117188 89.910156 C 76 94.042969 76.304688 98.234375 76.207031 102.457031 Z M 316.683594 84.195312 C 315 81.769531 312.191406 79.253906 308.660156 80.175781 C 305.597656 80.976562 304.253906 83.183594 303.476562 85.929688 C 302.390625 89.761719 302.285156 93.753906 301.667969 97.664062 C 301.257812 100.28125 300.527344 102.769531 298.484375 104.636719 C 296.648438 106.316406 294.894531 105.828125 294.234375 103.4375 C 293.9375 102.359375 293.828125 101.292969 294.058594 100.117188 C 294.476562 98 295.207031 96.007812 296 94.035156 C 300.421875 83.054688 302.554688 71.761719 300.601562 59.941406 C 299.4375 52.898438 296.625 46.648438 291.054688 41.933594 C 288.390625 39.675781 285.238281 38.824219 281.765625 39.164062 C 278.234375 39.511719 275.910156 41.289062 274.867188 44.769531 C 274.28125 46.71875 273.90625 48.691406 273.867188 50.699219 C 273.742188 57.75 275.835938 64.359375 277.953125 70.972656 C 279.671875 76.324219 281.507812 81.664062 281.359375 87.417969 C 281.328125 88.675781 281.105469 89.898438 280.847656 91.105469 C 280.609375 92.21875 280.113281 93.457031 278.867188 93.601562 C 277.695312 93.738281 277.039062 92.636719 276.546875 91.675781 C 276.171875 90.941406 275.796875 90.167969 275.644531 89.371094 C 275 86.003906 274.453125 82.617188 273.839844 79.242188 C 273.039062 74.816406 271.917969 70.550781 268.351562 67.378906 C 265.148438 64.527344 261.3125 64.320312 258.671875 67.140625 C 256.847656 69.085938 255.863281 71.511719 255.632812 74.199219 C 255.15625 79.804688 257.304688 84.796875 259.390625 89.761719 C 262.460938 97.058594 266.453125 104.027344 267.273438 112.109375 C 267.679688 116.109375 267.574219 120.066406 265.363281 123.648438 C 264.785156 124.585938 264.074219 125.367188 262.796875 125.222656 C 261.570312 125.082031 261.421875 123.996094 261.09375 123.167969 C 260.335938 121.242188 259.8125 119.222656 258.585938 117.503906 C 256.4375 114.5 253.375 113.804688 250.410156 116.003906 C 246.527344 118.890625 245.453125 123.019531 245.824219 127.675781 C 246.140625 131.628906 247.070312 135.5 247.203125 139.488281 C 247.414062 145.761719 244.964844 150.414062 239.335938 153.273438 C 237.015625 154.453125 234.648438 155.546875 232.257812 156.589844 C 231.085938 157.097656 230.660156 157.691406 230.972656 159.042969 C 231.554688 161.527344 232.246094 163.964844 233.117188 166.355469 C 234.046875 168.898438 234.714844 169.300781 237.371094 168.609375 C 240.402344 167.820312 243.445312 167.03125 246.398438 166 C 263.027344 160.1875 278.882812 152.726562 293.773438 143.296875 C 302.574219 137.722656 309.804688 130.636719 313.960938 120.878906 C 317.542969 112.460938 318.488281 103.511719 318.832031 96.136719 C 318.839844 89.214844 318.328125 86.558594 316.683594 84.195312 Z M 217.945312 220.144531 C 214.625 212.265625 208.234375 208.542969 200.199219 207.0625 C 199.679688 206.964844 199.148438 207.09375 199.035156 207.597656 C 198.894531 208.230469 199.519531 208.226562 199.953125 208.414062 C 208.265625 211.976562 213.96875 218.128906 217.621094 226.308594 C 217.863281 226.84375 217.839844 227.808594 218.789062 227.554688 C 219.554688 227.347656 219.171875 226.546875 219.300781 225.882812 C 219.066406 223.992188 218.730469 222.011719 217.945312 220.144531 Z M 217.945312 220.144531 " fill-opacity="1" fill-rule="nonzero"/></g><path fill="#a20b0b" d="M 191.941406 201.882812 C 200.101562 201.960938 206.402344 203.058594 211.925781 206.832031 C 219.265625 211.847656 222.40625 218.675781 221.960938 227.761719 C 221.382812 239.628906 210.664062 250.074219 198.714844 251.972656 C 192.277344 252.996094 185.863281 253.527344 179.632812 251.1875 C 169.511719 247.382812 164.0625 239.722656 162.179688 229.292969 C 161.105469 223.355469 162.324219 217.820312 165.773438 212.953125 C 168.902344 208.535156 173.667969 206.277344 178.625 204.507812 C 183.441406 202.789062 188.390625 201.726562 191.941406 201.882812 Z M 219.300781 225.882812 C 219.066406 223.992188 218.730469 222.011719 217.945312 220.144531 C 214.625 212.265625 208.234375 208.542969 200.199219 207.0625 C 199.679688 206.964844 199.148438 207.09375 199.035156 207.597656 C 198.894531 208.230469 199.519531 208.226562 199.953125 208.414062 C 208.265625 211.976562 213.96875 218.128906 217.621094 226.308594 C 217.863281 226.84375 217.839844 227.808594 218.789062 227.554688 C 219.554688 227.347656 219.171875 226.546875 219.300781 225.882812 Z M 219.300781 225.882812 " fill-opacity="1" fill-rule="nonzero"/><g clip-path="url(#9a5d72b0f0)"><path fill="#fea36c" d="M 76.207031 102.457031 C 76.160156 105.429688 76.195312 108.394531 76.914062 111.300781 C 77.054688 111.875 77.230469 112.445312 77.449219 112.996094 C 78 114.363281 78.769531 115.796875 80.355469 115.757812 C 81.90625 115.722656 82.726562 114.296875 83.296875 112.957031 C 84.308594 110.582031 84.207031 108.046875 83.976562 105.578125 C 83.515625 100.625 83.0625 95.671875 82.542969 90.730469 C 81.652344 82.265625 81.082031 73.777344 81.644531 65.308594 C 82.160156 57.597656 83.789062 50.085938 88.566406 43.605469 C 91.800781 39.214844 98.703125 37.523438 103.460938 39.046875 C 107.746094 40.417969 109.964844 44.5625 108.839844 49.121094 C 107.914062 52.871094 106.289062 56.386719 105.042969 60.027344 C 102.050781 68.761719 99.921875 77.652344 100.097656 86.96875 C 100.125 88.480469 100.433594 89.917969 101.085938 91.261719 C 101.4375 91.988281 101.773438 93 102.703125 92.972656 C 103.660156 92.945312 103.882812 91.910156 104.121094 91.140625 C 104.835938 88.824219 105.515625 86.492188 106.164062 84.15625 C 107.234375 80.289062 108.769531 76.652344 111.371094 73.542969 C 113.914062 70.507812 117.09375 68.925781 121.09375 69.519531 C 125.878906 70.226562 127.699219 74.519531 127.054688 79.636719 C 126.472656 84.277344 123.914062 88.167969 121.75 92.179688 C 119.300781 96.71875 116.304688 100.964844 114.28125 105.734375 C 112.667969 109.53125 111.679688 113.460938 112.214844 117.652344 C 112.3125 118.4375 112.507812 119.167969 112.84375 119.863281 C 113.90625 122.070312 115.308594 122.363281 117.191406 120.804688 C 119.292969 119.070312 121.160156 117.039062 123.679688 115.84375 C 124.882812 115.277344 126.128906 114.875 127.4375 115.015625 C 130.640625 115.359375 132.394531 117.988281 131.757812 121.320312 C 131.128906 124.613281 129.851562 127.683594 128.335938 130.632812 C 123.964844 139.125 126.953125 144.585938 133.347656 149.886719 C 137.480469 153.3125 142.347656 155.34375 147.269531 157.277344 C 152.296875 159.25 152.3125 159.234375 149.484375 163.792969 C 148.796875 164.902344 147.945312 165.921875 147.351562 167.074219 C 146.320312 169.078125 144.6875 169.308594 142.710938 169.046875 C 135.546875 168.097656 128.515625 166.5625 121.585938 164.492188 C 112.285156 161.714844 102.890625 159.210938 93.898438 155.511719 C 85.558594 152.078125 77.78125 147.730469 71.339844 141.234375 C 63.695312 133.53125 59.078125 124.347656 57.28125 113.664062 C 56.542969 109.265625 55.882812 104.863281 56.253906 100.40625 C 56.695312 95.109375 57.933594 90.101562 62.261719 86.4375 C 63.996094 84.96875 66.023438 84.164062 68.210938 83.824219 C 71.363281 83.328125 74.257812 85.902344 75.117188 89.910156 C 76 94.042969 76.304688 98.234375 76.207031 102.457031 Z M 316.683594 84.195312 C 315 81.769531 312.191406 79.253906 308.660156 80.175781 C 305.597656 80.976562 304.253906 83.183594 303.476562 85.929688 C 302.390625 89.761719 302.285156 93.753906 301.667969 97.664062 C 301.257812 100.28125 300.527344 102.769531 298.484375 104.636719 C 296.648438 106.316406 294.894531 105.828125 294.234375 103.4375 C 293.9375 102.359375 293.828125 101.292969 294.058594 100.117188 C 294.476562 98 295.207031 96.007812 296 94.035156 C 300.421875 83.054688 302.554688 71.761719 300.601562 59.941406 C 299.4375 52.898438 296.625 46.648438 291.054688 41.933594 C 288.390625 39.675781 285.238281 38.824219 281.765625 39.164062 C 278.234375 39.511719 275.910156 41.289062 274.867188 44.769531 C 274.28125 46.71875 273.90625 48.691406 273.867188 50.699219 C 273.742188 57.75 275.835938 64.359375 277.953125 70.972656 C 279.671875 76.324219 281.507812 81.664062 281.359375 87.417969 C 281.328125 88.675781 281.105469 89.898438 280.847656 91.105469 C 280.609375 92.21875 280.113281 93.457031 278.867188 93.601562 C 277.695312 93.738281 277.039062 92.636719 276.546875 91.675781 C 276.171875 90.941406 275.796875 90.167969 275.644531 89.371094 C 275 86.003906 274.453125 82.617188 273.839844 79.242188 C 273.039062 74.816406 271.917969 70.550781 268.351562 67.378906 C 265.148438 64.527344 261.3125 64.320312 258.671875 67.140625 C 256.847656 69.085938 255.863281 71.511719 255.632812 74.199219 C 255.15625 79.804688 257.304688 84.796875 259.390625 89.761719 C 262.460938 97.058594 266.453125 104.027344 267.273438 112.109375 C 267.679688 116.109375 267.574219 120.066406 265.363281 123.648438 C 264.785156 124.585938 264.074219 125.367188 262.796875 125.222656 C 261.570312 125.082031 261.421875 123.996094 261.09375 123.167969 C 260.335938 121.242188 259.8125 119.222656 258.585938 117.503906 C 256.4375 114.5 253.375 113.804688 250.410156 116.003906 C 246.527344 118.890625 245.453125 123.019531 245.824219 127.675781 C 246.140625 131.628906 247.070312 135.5 247.203125 139.488281 C 247.414062 145.761719 244.964844 150.414062 239.335938 153.273438 C 237.015625 154.453125 234.648438 155.546875 232.257812 156.589844 C 231.085938 157.097656 230.660156 157.691406 230.972656 159.042969 C 231.554688 161.527344 232.246094 163.964844 233.117188 166.355469 C 234.046875 168.898438 234.714844 169.300781 237.371094 168.609375 C 240.402344 167.820312 243.445312 167.03125 246.398438 166 C 263.027344 160.1875 278.882812 152.726562 293.773438 143.296875 C 302.574219 137.722656 309.804688 130.636719 313.960938 120.878906 C 317.542969 112.460938 318.488281 103.511719 318.832031 96.136719 C 318.839844 89.214844 318.328125 86.558594 316.683594 84.195312 Z M 217.945312 220.144531 C 214.625 212.265625 208.234375 208.542969 200.199219 207.0625 C 199.679688 206.964844 199.148438 207.09375 199.035156 207.597656 C 198.894531 208.230469 199.519531 208.226562 199.953125 208.414062 C 208.265625 211.976562 213.96875 218.128906 217.621094 226.308594 C 217.863281 226.84375 217.839844 227.808594 218.789062 227.554688 C 219.554688 227.347656 219.171875 226.546875 219.300781 225.882812 C 219.066406 223.992188 218.730469 222.011719 217.945312 220.144531 Z M 217.945312 220.144531 " fill-opacity="1" fill-rule="nonzero"/></g></svg>